<mxfile host="Electron" modified="2024-06-11T01:42:18.853Z" agent="Mozilla/5.0 (Windows NT 10.0; Win64; x64) AppleWebKit/537.36 (KHTML, like Gecko) draw.io/24.2.5 Chrome/120.0.6099.109 Electron/28.1.0 Safari/537.36" etag="wnv-ubMNgQ5jFf8vSHow" version="24.2.5" type="device">
  <diagram name="Class Diagram" id="CEjLjqArny11XoYz8Cn6">
    <mxGraphModel dx="477" dy="208" grid="1" gridSize="10" guides="1" tooltips="1" connect="1" arrows="1" fold="1" page="1" pageScale="1" pageWidth="850" pageHeight="1100" math="0" shadow="0">
      <root>
        <mxCell id="0" />
        <mxCell id="1" parent="0" />
        <mxCell id="fLMmhs6oxU9pIg5j37gX-44" value="" style="group" parent="1" vertex="1" connectable="0">
          <mxGeometry x="60" y="50" width="1080" height="540" as="geometry" />
        </mxCell>
        <mxCell id="fLMmhs6oxU9pIg5j37gX-5" value="Authentication" style="swimlane;fontStyle=1;align=center;verticalAlign=top;childLayout=stackLayout;horizontal=1;startSize=26;horizontalStack=0;resizeParent=1;resizeParentMax=0;resizeLast=0;collapsible=1;marginBottom=0;whiteSpace=wrap;html=1;" parent="fLMmhs6oxU9pIg5j37gX-44" vertex="1">
          <mxGeometry x="50" y="270" width="160" height="86" as="geometry" />
        </mxCell>
        <mxCell id="fLMmhs6oxU9pIg5j37gX-6" value="+ subject: String" style="text;strokeColor=none;fillColor=none;align=left;verticalAlign=top;spacingLeft=4;spacingRight=4;overflow=hidden;rotatable=0;points=[[0,0.5],[1,0.5]];portConstraint=eastwest;whiteSpace=wrap;html=1;" parent="fLMmhs6oxU9pIg5j37gX-5" vertex="1">
          <mxGeometry y="26" width="160" height="26" as="geometry" />
        </mxCell>
        <mxCell id="fLMmhs6oxU9pIg5j37gX-7" value="" style="line;strokeWidth=1;fillColor=none;align=left;verticalAlign=middle;spacingTop=-1;spacingLeft=3;spacingRight=3;rotatable=0;labelPosition=right;points=[];portConstraint=eastwest;strokeColor=inherit;" parent="fLMmhs6oxU9pIg5j37gX-5" vertex="1">
          <mxGeometry y="52" width="160" height="8" as="geometry" />
        </mxCell>
        <mxCell id="fLMmhs6oxU9pIg5j37gX-8" value="+ getSubject(): String" style="text;strokeColor=none;fillColor=none;align=left;verticalAlign=top;spacingLeft=4;spacingRight=4;overflow=hidden;rotatable=0;points=[[0,0.5],[1,0.5]];portConstraint=eastwest;whiteSpace=wrap;html=1;" parent="fLMmhs6oxU9pIg5j37gX-5" vertex="1">
          <mxGeometry y="60" width="160" height="26" as="geometry" />
        </mxCell>
        <mxCell id="fLMmhs6oxU9pIg5j37gX-19" style="edgeStyle=orthogonalEdgeStyle;rounded=0;orthogonalLoop=1;jettySize=auto;html=1;entryX=0.5;entryY=0;entryDx=0;entryDy=0;" parent="fLMmhs6oxU9pIg5j37gX-44" source="fLMmhs6oxU9pIg5j37gX-9" target="fLMmhs6oxU9pIg5j37gX-14" edge="1">
          <mxGeometry relative="1" as="geometry" />
        </mxCell>
        <mxCell id="fLMmhs6oxU9pIg5j37gX-9" value="&lt;p style=&quot;margin:0px;margin-top:4px;text-align:center;&quot;&gt;&lt;i&gt;&amp;lt;&amp;lt;Interface&amp;gt;&amp;gt;&lt;/i&gt;&lt;br&gt;&lt;b&gt;TokenProvider&lt;/b&gt;&lt;/p&gt;&lt;hr size=&quot;1&quot; style=&quot;border-style:solid;&quot;&gt;&lt;p style=&quot;margin:0px;margin-left:4px;&quot;&gt;+ create(subject: String): Promise&amp;lt;String&amp;gt;&lt;/p&gt;&lt;p style=&quot;margin:0px;margin-left:4px;&quot;&gt;+ validate(token: String): Authentication&lt;/p&gt;" style="verticalAlign=top;align=left;overflow=fill;html=1;whiteSpace=wrap;" parent="fLMmhs6oxU9pIg5j37gX-44" vertex="1">
          <mxGeometry x="260" y="60" width="280" height="90" as="geometry" />
        </mxCell>
        <mxCell id="fLMmhs6oxU9pIg5j37gX-14" value="JwtService" style="swimlane;fontStyle=1;align=center;verticalAlign=top;childLayout=stackLayout;horizontal=1;startSize=26;horizontalStack=0;resizeParent=1;resizeParentMax=0;resizeLast=0;collapsible=1;marginBottom=0;whiteSpace=wrap;html=1;" parent="fLMmhs6oxU9pIg5j37gX-44" vertex="1">
          <mxGeometry x="270" y="270" width="260" height="112" as="geometry" />
        </mxCell>
        <mxCell id="fLMmhs6oxU9pIg5j37gX-15" value="+ secret: String" style="text;strokeColor=none;fillColor=none;align=left;verticalAlign=top;spacingLeft=4;spacingRight=4;overflow=hidden;rotatable=0;points=[[0,0.5],[1,0.5]];portConstraint=eastwest;whiteSpace=wrap;html=1;" parent="fLMmhs6oxU9pIg5j37gX-14" vertex="1">
          <mxGeometry y="26" width="260" height="26" as="geometry" />
        </mxCell>
        <mxCell id="fLMmhs6oxU9pIg5j37gX-16" value="" style="line;strokeWidth=1;fillColor=none;align=left;verticalAlign=middle;spacingTop=-1;spacingLeft=3;spacingRight=3;rotatable=0;labelPosition=right;points=[];portConstraint=eastwest;strokeColor=inherit;" parent="fLMmhs6oxU9pIg5j37gX-14" vertex="1">
          <mxGeometry y="52" width="260" height="8" as="geometry" />
        </mxCell>
        <mxCell id="fLMmhs6oxU9pIg5j37gX-17" value="+ create(subject: String): Promise&amp;lt;String&amp;gt;" style="text;strokeColor=none;fillColor=none;align=left;verticalAlign=top;spacingLeft=4;spacingRight=4;overflow=hidden;rotatable=0;points=[[0,0.5],[1,0.5]];portConstraint=eastwest;whiteSpace=wrap;html=1;" parent="fLMmhs6oxU9pIg5j37gX-14" vertex="1">
          <mxGeometry y="60" width="260" height="26" as="geometry" />
        </mxCell>
        <mxCell id="fLMmhs6oxU9pIg5j37gX-18" value="+ validate(token: String): Authentication" style="text;strokeColor=none;fillColor=none;align=left;verticalAlign=top;spacingLeft=4;spacingRight=4;overflow=hidden;rotatable=0;points=[[0,0.5],[1,0.5]];portConstraint=eastwest;whiteSpace=wrap;html=1;" parent="fLMmhs6oxU9pIg5j37gX-14" vertex="1">
          <mxGeometry y="86" width="260" height="26" as="geometry" />
        </mxCell>
        <mxCell id="fLMmhs6oxU9pIg5j37gX-26" value="&lt;p style=&quot;margin:0px;margin-top:4px;text-align:center;&quot;&gt;&lt;i&gt;&amp;lt;&amp;lt;function&amp;gt;&amp;gt;&lt;/i&gt;&lt;/p&gt;&lt;p style=&quot;margin:0px;margin-top:4px;text-align:center;&quot;&gt;BearerTokenMiddlewareFactory(tokenProvider: TokenProvider): Middleware&lt;/p&gt;" style="verticalAlign=top;align=left;overflow=fill;html=1;whiteSpace=wrap;" parent="fLMmhs6oxU9pIg5j37gX-44" vertex="1">
          <mxGeometry x="100" y="450" width="430" height="50" as="geometry" />
        </mxCell>
        <mxCell id="fLMmhs6oxU9pIg5j37gX-34" style="edgeStyle=orthogonalEdgeStyle;rounded=0;orthogonalLoop=1;jettySize=auto;html=1;" parent="fLMmhs6oxU9pIg5j37gX-44" source="fLMmhs6oxU9pIg5j37gX-28" target="fLMmhs6oxU9pIg5j37gX-29" edge="1">
          <mxGeometry relative="1" as="geometry" />
        </mxCell>
        <mxCell id="fLMmhs6oxU9pIg5j37gX-28" value="&lt;p style=&quot;margin:0px;margin-top:4px;text-align:center;&quot;&gt;&lt;i&gt;&amp;lt;&amp;lt;Interface&amp;gt;&amp;gt;&lt;/i&gt;&lt;br&gt;&lt;b&gt;PasswordManager&lt;/b&gt;&lt;/p&gt;&lt;hr size=&quot;1&quot; style=&quot;border-style:solid;&quot;&gt;&lt;p style=&quot;margin:0px;margin-left:4px;&quot;&gt;+ encrypt(password: String): Promise&amp;lt;String&amp;gt;&lt;/p&gt;&lt;p style=&quot;margin:0px;margin-left:4px;&quot;&gt;+ verify(password: String, encryptedPassword: String): Promise&amp;lt;boolean&amp;gt;&lt;/p&gt;" style="verticalAlign=top;align=left;overflow=fill;html=1;whiteSpace=wrap;" parent="fLMmhs6oxU9pIg5j37gX-44" vertex="1">
          <mxGeometry x="600" y="60" width="430" height="90" as="geometry" />
        </mxCell>
        <mxCell id="fLMmhs6oxU9pIg5j37gX-29" value="BcryptService" style="swimlane;fontStyle=1;align=center;verticalAlign=top;childLayout=stackLayout;horizontal=1;startSize=26;horizontalStack=0;resizeParent=1;resizeParentMax=0;resizeLast=0;collapsible=1;marginBottom=0;whiteSpace=wrap;html=1;" parent="fLMmhs6oxU9pIg5j37gX-44" vertex="1">
          <mxGeometry x="605" y="270" width="420" height="112" as="geometry" />
        </mxCell>
        <mxCell id="fLMmhs6oxU9pIg5j37gX-30" value="+ saltRounds: number" style="text;strokeColor=none;fillColor=none;align=left;verticalAlign=top;spacingLeft=4;spacingRight=4;overflow=hidden;rotatable=0;points=[[0,0.5],[1,0.5]];portConstraint=eastwest;whiteSpace=wrap;html=1;" parent="fLMmhs6oxU9pIg5j37gX-29" vertex="1">
          <mxGeometry y="26" width="420" height="26" as="geometry" />
        </mxCell>
        <mxCell id="fLMmhs6oxU9pIg5j37gX-31" value="" style="line;strokeWidth=1;fillColor=none;align=left;verticalAlign=middle;spacingTop=-1;spacingLeft=3;spacingRight=3;rotatable=0;labelPosition=right;points=[];portConstraint=eastwest;strokeColor=inherit;" parent="fLMmhs6oxU9pIg5j37gX-29" vertex="1">
          <mxGeometry y="52" width="420" height="8" as="geometry" />
        </mxCell>
        <mxCell id="fLMmhs6oxU9pIg5j37gX-32" value="+ encrypt(password: String): Promise&amp;lt;String&amp;gt;" style="text;strokeColor=none;fillColor=none;align=left;verticalAlign=top;spacingLeft=4;spacingRight=4;overflow=hidden;rotatable=0;points=[[0,0.5],[1,0.5]];portConstraint=eastwest;whiteSpace=wrap;html=1;" parent="fLMmhs6oxU9pIg5j37gX-29" vertex="1">
          <mxGeometry y="60" width="420" height="26" as="geometry" />
        </mxCell>
        <mxCell id="fLMmhs6oxU9pIg5j37gX-33" value="+ verify(password: String, encryptedPassword: String): Promise&amp;lt;boolean&amp;gt;" style="text;strokeColor=none;fillColor=none;align=left;verticalAlign=top;spacingLeft=4;spacingRight=4;overflow=hidden;rotatable=0;points=[[0,0.5],[1,0.5]];portConstraint=eastwest;whiteSpace=wrap;html=1;" parent="fLMmhs6oxU9pIg5j37gX-29" vertex="1">
          <mxGeometry y="86" width="420" height="26" as="geometry" />
        </mxCell>
        <mxCell id="fLMmhs6oxU9pIg5j37gX-43" value="Security" style="swimlane;whiteSpace=wrap;html=1;" parent="fLMmhs6oxU9pIg5j37gX-44" vertex="1">
          <mxGeometry width="1080" height="540" as="geometry" />
        </mxCell>
        <mxCell id="fLMmhs6oxU9pIg5j37gX-88" value="Data" style="swimlane;whiteSpace=wrap;html=1;" parent="1" vertex="1">
          <mxGeometry x="1280" y="50" width="540" height="540" as="geometry" />
        </mxCell>
        <mxCell id="fLMmhs6oxU9pIg5j37gX-45" value="PaginatedResource" style="swimlane;fontStyle=1;align=center;verticalAlign=top;childLayout=stackLayout;horizontal=1;startSize=26;horizontalStack=0;resizeParent=1;resizeParentMax=0;resizeLast=0;collapsible=1;marginBottom=0;whiteSpace=wrap;html=1;" parent="fLMmhs6oxU9pIg5j37gX-88" vertex="1">
          <mxGeometry x="30" y="50" width="470" height="210" as="geometry" />
        </mxCell>
        <mxCell id="fLMmhs6oxU9pIg5j37gX-46" value="+ pageNumber: number" style="text;strokeColor=none;fillColor=none;align=left;verticalAlign=top;spacingLeft=4;spacingRight=4;overflow=hidden;rotatable=0;points=[[0,0.5],[1,0.5]];portConstraint=eastwest;whiteSpace=wrap;html=1;" parent="fLMmhs6oxU9pIg5j37gX-45" vertex="1">
          <mxGeometry y="26" width="470" height="26" as="geometry" />
        </mxCell>
        <mxCell id="fLMmhs6oxU9pIg5j37gX-50" value="+ pageSize: number" style="text;strokeColor=none;fillColor=none;align=left;verticalAlign=top;spacingLeft=4;spacingRight=4;overflow=hidden;rotatable=0;points=[[0,0.5],[1,0.5]];portConstraint=eastwest;whiteSpace=wrap;html=1;" parent="fLMmhs6oxU9pIg5j37gX-45" vertex="1">
          <mxGeometry y="52" width="470" height="26" as="geometry" />
        </mxCell>
        <mxCell id="fLMmhs6oxU9pIg5j37gX-51" value="+ hasNextPage: boolean" style="text;strokeColor=none;fillColor=none;align=left;verticalAlign=top;spacingLeft=4;spacingRight=4;overflow=hidden;rotatable=0;points=[[0,0.5],[1,0.5]];portConstraint=eastwest;whiteSpace=wrap;html=1;" parent="fLMmhs6oxU9pIg5j37gX-45" vertex="1">
          <mxGeometry y="78" width="470" height="26" as="geometry" />
        </mxCell>
        <mxCell id="fLMmhs6oxU9pIg5j37gX-52" value="+ hasPreviousPage: boolean" style="text;strokeColor=none;fillColor=none;align=left;verticalAlign=top;spacingLeft=4;spacingRight=4;overflow=hidden;rotatable=0;points=[[0,0.5],[1,0.5]];portConstraint=eastwest;whiteSpace=wrap;html=1;" parent="fLMmhs6oxU9pIg5j37gX-45" vertex="1">
          <mxGeometry y="104" width="470" height="26" as="geometry" />
        </mxCell>
        <mxCell id="fLMmhs6oxU9pIg5j37gX-53" value="+ items: any[]" style="text;strokeColor=none;fillColor=none;align=left;verticalAlign=top;spacingLeft=4;spacingRight=4;overflow=hidden;rotatable=0;points=[[0,0.5],[1,0.5]];portConstraint=eastwest;whiteSpace=wrap;html=1;" parent="fLMmhs6oxU9pIg5j37gX-45" vertex="1">
          <mxGeometry y="130" width="470" height="26" as="geometry" />
        </mxCell>
        <mxCell id="fLMmhs6oxU9pIg5j37gX-47" value="" style="line;strokeWidth=1;fillColor=none;align=left;verticalAlign=middle;spacingTop=-1;spacingLeft=3;spacingRight=3;rotatable=0;labelPosition=right;points=[];portConstraint=eastwest;strokeColor=inherit;" parent="fLMmhs6oxU9pIg5j37gX-45" vertex="1">
          <mxGeometry y="156" width="470" height="8" as="geometry" />
        </mxCell>
        <mxCell id="fLMmhs6oxU9pIg5j37gX-48" value="+ PaginatedResource(pageNumber: number, pageSize: number, hasNextPage: boolean, hasPreviousPage: boolean, items: any[]): this" style="text;strokeColor=none;fillColor=none;align=left;verticalAlign=top;spacingLeft=4;spacingRight=4;overflow=hidden;rotatable=0;points=[[0,0.5],[1,0.5]];portConstraint=eastwest;whiteSpace=wrap;html=1;" parent="fLMmhs6oxU9pIg5j37gX-45" vertex="1">
          <mxGeometry y="164" width="470" height="46" as="geometry" />
        </mxCell>
        <mxCell id="fLMmhs6oxU9pIg5j37gX-83" value="PaginatedSearcher" style="swimlane;fontStyle=1;align=center;verticalAlign=top;childLayout=stackLayout;horizontal=1;startSize=26;horizontalStack=0;resizeParent=1;resizeParentMax=0;resizeLast=0;collapsible=1;marginBottom=0;whiteSpace=wrap;html=1;" parent="fLMmhs6oxU9pIg5j37gX-88" vertex="1">
          <mxGeometry x="30" y="290" width="470" height="112" as="geometry" />
        </mxCell>
        <mxCell id="fLMmhs6oxU9pIg5j37gX-84" value="+ model: Model" style="text;strokeColor=none;fillColor=none;align=left;verticalAlign=top;spacingLeft=4;spacingRight=4;overflow=hidden;rotatable=0;points=[[0,0.5],[1,0.5]];portConstraint=eastwest;whiteSpace=wrap;html=1;" parent="fLMmhs6oxU9pIg5j37gX-83" vertex="1">
          <mxGeometry y="26" width="470" height="26" as="geometry" />
        </mxCell>
        <mxCell id="fLMmhs6oxU9pIg5j37gX-85" value="" style="line;strokeWidth=1;fillColor=none;align=left;verticalAlign=middle;spacingTop=-1;spacingLeft=3;spacingRight=3;rotatable=0;labelPosition=right;points=[];portConstraint=eastwest;strokeColor=inherit;" parent="fLMmhs6oxU9pIg5j37gX-83" vertex="1">
          <mxGeometry y="52" width="470" height="8" as="geometry" />
        </mxCell>
        <mxCell id="fLMmhs6oxU9pIg5j37gX-86" value="+ search(page: number, size: number): Promise&amp;lt;PaginatedResource&amp;gt;" style="text;strokeColor=none;fillColor=none;align=left;verticalAlign=top;spacingLeft=4;spacingRight=4;overflow=hidden;rotatable=0;points=[[0,0.5],[1,0.5]];portConstraint=eastwest;whiteSpace=wrap;html=1;" parent="fLMmhs6oxU9pIg5j37gX-83" vertex="1">
          <mxGeometry y="60" width="470" height="26" as="geometry" />
        </mxCell>
        <mxCell id="fLMmhs6oxU9pIg5j37gX-87" value="+ query(query: any, page: number, size: number): Promise&amp;lt;PaginatedResource&amp;gt;" style="text;strokeColor=none;fillColor=none;align=left;verticalAlign=top;spacingLeft=4;spacingRight=4;overflow=hidden;rotatable=0;points=[[0,0.5],[1,0.5]];portConstraint=eastwest;whiteSpace=wrap;html=1;" parent="fLMmhs6oxU9pIg5j37gX-83" vertex="1">
          <mxGeometry y="86" width="470" height="26" as="geometry" />
        </mxCell>
        <mxCell id="fLMmhs6oxU9pIg5j37gX-89" value="&lt;p style=&quot;margin:0px;margin-top:4px;text-align:center;&quot;&gt;&lt;i&gt;&amp;lt;&amp;lt;function&amp;gt;&amp;gt;&lt;/i&gt;&lt;/p&gt;&lt;p style=&quot;margin:0px;margin-top:4px;text-align:center;&quot;&gt;RequestValidator(chain ValidationChain...): Middleware&lt;/p&gt;" style="verticalAlign=top;align=left;overflow=fill;html=1;whiteSpace=wrap;" parent="fLMmhs6oxU9pIg5j37gX-88" vertex="1">
          <mxGeometry x="50" y="450" width="430" height="50" as="geometry" />
        </mxCell>
        <mxCell id="fLMmhs6oxU9pIg5j37gX-100" value="Models" style="swimlane;whiteSpace=wrap;html=1;" parent="1" vertex="1">
          <mxGeometry x="60" y="630" width="5890" height="290" as="geometry" />
        </mxCell>
        <mxCell id="fLMmhs6oxU9pIg5j37gX-101" value="UserModel" style="swimlane;fontStyle=0;childLayout=stackLayout;horizontal=1;startSize=26;fillColor=none;horizontalStack=0;resizeParent=1;resizeParentMax=0;resizeLast=0;collapsible=1;marginBottom=0;whiteSpace=wrap;html=1;" parent="fLMmhs6oxU9pIg5j37gX-100" vertex="1">
          <mxGeometry x="165" y="93" width="140" height="130" as="geometry" />
        </mxCell>
        <mxCell id="fLMmhs6oxU9pIg5j37gX-102" value="+ id: number" style="text;strokeColor=none;fillColor=none;align=left;verticalAlign=top;spacingLeft=4;spacingRight=4;overflow=hidden;rotatable=0;points=[[0,0.5],[1,0.5]];portConstraint=eastwest;whiteSpace=wrap;html=1;" parent="fLMmhs6oxU9pIg5j37gX-101" vertex="1">
          <mxGeometry y="26" width="140" height="26" as="geometry" />
        </mxCell>
        <mxCell id="fLMmhs6oxU9pIg5j37gX-103" value="+ email: String" style="text;strokeColor=none;fillColor=none;align=left;verticalAlign=top;spacingLeft=4;spacingRight=4;overflow=hidden;rotatable=0;points=[[0,0.5],[1,0.5]];portConstraint=eastwest;whiteSpace=wrap;html=1;" parent="fLMmhs6oxU9pIg5j37gX-101" vertex="1">
          <mxGeometry y="52" width="140" height="26" as="geometry" />
        </mxCell>
        <mxCell id="fLMmhs6oxU9pIg5j37gX-104" value="+ password: String" style="text;strokeColor=none;fillColor=none;align=left;verticalAlign=top;spacingLeft=4;spacingRight=4;overflow=hidden;rotatable=0;points=[[0,0.5],[1,0.5]];portConstraint=eastwest;whiteSpace=wrap;html=1;" parent="fLMmhs6oxU9pIg5j37gX-101" vertex="1">
          <mxGeometry y="78" width="140" height="26" as="geometry" />
        </mxCell>
        <mxCell id="VpDtDvV46lMGRpjxMcqZ-9" value="+ depositId: number" style="text;strokeColor=none;fillColor=none;align=left;verticalAlign=top;spacingLeft=4;spacingRight=4;overflow=hidden;rotatable=0;points=[[0,0.5],[1,0.5]];portConstraint=eastwest;whiteSpace=wrap;html=1;" parent="fLMmhs6oxU9pIg5j37gX-101" vertex="1">
          <mxGeometry y="104" width="140" height="26" as="geometry" />
        </mxCell>
        <mxCell id="fLMmhs6oxU9pIg5j37gX-122" value="ProductModel" style="swimlane;fontStyle=0;childLayout=stackLayout;horizontal=1;startSize=26;fillColor=none;horizontalStack=0;resizeParent=1;resizeParentMax=0;resizeLast=0;collapsible=1;marginBottom=0;whiteSpace=wrap;html=1;" parent="fLMmhs6oxU9pIg5j37gX-100" vertex="1">
          <mxGeometry x="645" y="67" width="140" height="130" as="geometry" />
        </mxCell>
        <mxCell id="fLMmhs6oxU9pIg5j37gX-123" value="+ id: number" style="text;strokeColor=none;fillColor=none;align=left;verticalAlign=top;spacingLeft=4;spacingRight=4;overflow=hidden;rotatable=0;points=[[0,0.5],[1,0.5]];portConstraint=eastwest;whiteSpace=wrap;html=1;" parent="fLMmhs6oxU9pIg5j37gX-122" vertex="1">
          <mxGeometry y="26" width="140" height="26" as="geometry" />
        </mxCell>
        <mxCell id="fLMmhs6oxU9pIg5j37gX-124" value="+ name: string" style="text;strokeColor=none;fillColor=none;align=left;verticalAlign=top;spacingLeft=4;spacingRight=4;overflow=hidden;rotatable=0;points=[[0,0.5],[1,0.5]];portConstraint=eastwest;whiteSpace=wrap;html=1;" parent="fLMmhs6oxU9pIg5j37gX-122" vertex="1">
          <mxGeometry y="52" width="140" height="26" as="geometry" />
        </mxCell>
        <mxCell id="fLMmhs6oxU9pIg5j37gX-125" value="+ description: string" style="text;strokeColor=none;fillColor=none;align=left;verticalAlign=top;spacingLeft=4;spacingRight=4;overflow=hidden;rotatable=0;points=[[0,0.5],[1,0.5]];portConstraint=eastwest;whiteSpace=wrap;html=1;" parent="fLMmhs6oxU9pIg5j37gX-122" vertex="1">
          <mxGeometry y="78" width="140" height="26" as="geometry" />
        </mxCell>
        <mxCell id="fLMmhs6oxU9pIg5j37gX-126" value="+ isActive: boolean" style="text;strokeColor=none;fillColor=none;align=left;verticalAlign=top;spacingLeft=4;spacingRight=4;overflow=hidden;rotatable=0;points=[[0,0.5],[1,0.5]];portConstraint=eastwest;whiteSpace=wrap;html=1;" parent="fLMmhs6oxU9pIg5j37gX-122" vertex="1">
          <mxGeometry y="104" width="140" height="26" as="geometry" />
        </mxCell>
        <mxCell id="fLMmhs6oxU9pIg5j37gX-157" value="DepositModel" style="swimlane;fontStyle=0;childLayout=stackLayout;horizontal=1;startSize=26;fillColor=none;horizontalStack=0;resizeParent=1;resizeParentMax=0;resizeLast=0;collapsible=1;marginBottom=0;whiteSpace=wrap;html=1;" parent="fLMmhs6oxU9pIg5j37gX-100" vertex="1">
          <mxGeometry x="1200" y="80" width="140" height="104" as="geometry" />
        </mxCell>
        <mxCell id="fLMmhs6oxU9pIg5j37gX-158" value="+ id: number" style="text;strokeColor=none;fillColor=none;align=left;verticalAlign=top;spacingLeft=4;spacingRight=4;overflow=hidden;rotatable=0;points=[[0,0.5],[1,0.5]];portConstraint=eastwest;whiteSpace=wrap;html=1;" parent="fLMmhs6oxU9pIg5j37gX-157" vertex="1">
          <mxGeometry y="26" width="140" height="26" as="geometry" />
        </mxCell>
        <mxCell id="fLMmhs6oxU9pIg5j37gX-159" value="+ name: string" style="text;strokeColor=none;fillColor=none;align=left;verticalAlign=top;spacingLeft=4;spacingRight=4;overflow=hidden;rotatable=0;points=[[0,0.5],[1,0.5]];portConstraint=eastwest;whiteSpace=wrap;html=1;" parent="fLMmhs6oxU9pIg5j37gX-157" vertex="1">
          <mxGeometry y="52" width="140" height="26" as="geometry" />
        </mxCell>
        <mxCell id="fLMmhs6oxU9pIg5j37gX-161" value="+ isActive: boolean" style="text;strokeColor=none;fillColor=none;align=left;verticalAlign=top;spacingLeft=4;spacingRight=4;overflow=hidden;rotatable=0;points=[[0,0.5],[1,0.5]];portConstraint=eastwest;whiteSpace=wrap;html=1;" parent="fLMmhs6oxU9pIg5j37gX-157" vertex="1">
          <mxGeometry y="78" width="140" height="26" as="geometry" />
        </mxCell>
        <mxCell id="fLMmhs6oxU9pIg5j37gX-195" value="ProductMovementModel" style="swimlane;fontStyle=0;childLayout=stackLayout;horizontal=1;startSize=26;fillColor=none;horizontalStack=0;resizeParent=1;resizeParentMax=0;resizeLast=0;collapsible=1;marginBottom=0;whiteSpace=wrap;html=1;" parent="fLMmhs6oxU9pIg5j37gX-100" vertex="1">
          <mxGeometry x="1725" y="60" width="240" height="208" as="geometry" />
        </mxCell>
        <mxCell id="fLMmhs6oxU9pIg5j37gX-196" value="+ id: number" style="text;strokeColor=none;fillColor=none;align=left;verticalAlign=top;spacingLeft=4;spacingRight=4;overflow=hidden;rotatable=0;points=[[0,0.5],[1,0.5]];portConstraint=eastwest;whiteSpace=wrap;html=1;" parent="fLMmhs6oxU9pIg5j37gX-195" vertex="1">
          <mxGeometry y="26" width="240" height="26" as="geometry" />
        </mxCell>
        <mxCell id="fLMmhs6oxU9pIg5j37gX-197" value="+ depositId: number" style="text;strokeColor=none;fillColor=none;align=left;verticalAlign=top;spacingLeft=4;spacingRight=4;overflow=hidden;rotatable=0;points=[[0,0.5],[1,0.5]];portConstraint=eastwest;whiteSpace=wrap;html=1;" parent="fLMmhs6oxU9pIg5j37gX-195" vertex="1">
          <mxGeometry y="52" width="240" height="26" as="geometry" />
        </mxCell>
        <mxCell id="fLMmhs6oxU9pIg5j37gX-198" value="+ productId: number" style="text;strokeColor=none;fillColor=none;align=left;verticalAlign=top;spacingLeft=4;spacingRight=4;overflow=hidden;rotatable=0;points=[[0,0.5],[1,0.5]];portConstraint=eastwest;whiteSpace=wrap;html=1;" parent="fLMmhs6oxU9pIg5j37gX-195" vertex="1">
          <mxGeometry y="78" width="240" height="26" as="geometry" />
        </mxCell>
        <mxCell id="fLMmhs6oxU9pIg5j37gX-199" value="+ movementType: string" style="text;strokeColor=none;fillColor=none;align=left;verticalAlign=top;spacingLeft=4;spacingRight=4;overflow=hidden;rotatable=0;points=[[0,0.5],[1,0.5]];portConstraint=eastwest;whiteSpace=wrap;html=1;" parent="fLMmhs6oxU9pIg5j37gX-195" vertex="1">
          <mxGeometry y="104" width="240" height="26" as="geometry" />
        </mxCell>
        <mxCell id="fLMmhs6oxU9pIg5j37gX-200" value="+ quantity: number" style="text;strokeColor=none;fillColor=none;align=left;verticalAlign=top;spacingLeft=4;spacingRight=4;overflow=hidden;rotatable=0;points=[[0,0.5],[1,0.5]];portConstraint=eastwest;whiteSpace=wrap;html=1;" parent="fLMmhs6oxU9pIg5j37gX-195" vertex="1">
          <mxGeometry y="130" width="240" height="26" as="geometry" />
        </mxCell>
        <mxCell id="fLMmhs6oxU9pIg5j37gX-201" value="+ unitaryPrice: number" style="text;strokeColor=none;fillColor=none;align=left;verticalAlign=top;spacingLeft=4;spacingRight=4;overflow=hidden;rotatable=0;points=[[0,0.5],[1,0.5]];portConstraint=eastwest;whiteSpace=wrap;html=1;" parent="fLMmhs6oxU9pIg5j37gX-195" vertex="1">
          <mxGeometry y="156" width="240" height="26" as="geometry" />
        </mxCell>
        <mxCell id="fLMmhs6oxU9pIg5j37gX-202" value="+ date: Date" style="text;strokeColor=none;fillColor=none;align=left;verticalAlign=top;spacingLeft=4;spacingRight=4;overflow=hidden;rotatable=0;points=[[0,0.5],[1,0.5]];portConstraint=eastwest;whiteSpace=wrap;html=1;" parent="fLMmhs6oxU9pIg5j37gX-195" vertex="1">
          <mxGeometry y="182" width="240" height="26" as="geometry" />
        </mxCell>
        <mxCell id="VpDtDvV46lMGRpjxMcqZ-10" value="DepartmentService" style="swimlane;fontStyle=1;align=center;verticalAlign=top;childLayout=stackLayout;horizontal=1;startSize=26;horizontalStack=0;resizeParent=1;resizeParentMax=0;resizeLast=0;collapsible=1;marginBottom=0;whiteSpace=wrap;html=1;" parent="fLMmhs6oxU9pIg5j37gX-100" vertex="1">
          <mxGeometry x="2240" y="455" width="390" height="278" as="geometry" />
        </mxCell>
        <mxCell id="VpDtDvV46lMGRpjxMcqZ-11" value="+ departmentModel: Model" style="text;strokeColor=none;fillColor=none;align=left;verticalAlign=top;spacingLeft=4;spacingRight=4;overflow=hidden;rotatable=0;points=[[0,0.5],[1,0.5]];portConstraint=eastwest;whiteSpace=wrap;html=1;" parent="VpDtDvV46lMGRpjxMcqZ-10" vertex="1">
          <mxGeometry y="26" width="390" height="26" as="geometry" />
        </mxCell>
        <mxCell id="VpDtDvV46lMGRpjxMcqZ-14" value="+ paginatedSearcher: PaginatedSearcher" style="text;strokeColor=none;fillColor=none;align=left;verticalAlign=top;spacingLeft=4;spacingRight=4;overflow=hidden;rotatable=0;points=[[0,0.5],[1,0.5]];portConstraint=eastwest;whiteSpace=wrap;html=1;" parent="VpDtDvV46lMGRpjxMcqZ-10" vertex="1">
          <mxGeometry y="52" width="390" height="26" as="geometry" />
        </mxCell>
        <mxCell id="VpDtDvV46lMGRpjxMcqZ-15" value="" style="line;strokeWidth=1;fillColor=none;align=left;verticalAlign=middle;spacingTop=-1;spacingLeft=3;spacingRight=3;rotatable=0;labelPosition=right;points=[];portConstraint=eastwest;strokeColor=inherit;" parent="VpDtDvV46lMGRpjxMcqZ-10" vertex="1">
          <mxGeometry y="78" width="390" height="8" as="geometry" />
        </mxCell>
        <mxCell id="VpDtDvV46lMGRpjxMcqZ-16" value="+ DepartmentService(departmentModel, paginatedSearcher): this" style="text;strokeColor=none;fillColor=none;align=left;verticalAlign=top;spacingLeft=4;spacingRight=4;overflow=hidden;rotatable=0;points=[[0,0.5],[1,0.5]];portConstraint=eastwest;whiteSpace=wrap;html=1;" parent="VpDtDvV46lMGRpjxMcqZ-10" vertex="1">
          <mxGeometry y="86" width="390" height="32" as="geometry" />
        </mxCell>
        <mxCell id="VpDtDvV46lMGRpjxMcqZ-17" value="+ findById(id: number): Promise&amp;lt;Model | null&amp;gt;" style="text;strokeColor=none;fillColor=none;align=left;verticalAlign=top;spacingLeft=4;spacingRight=4;overflow=hidden;rotatable=0;points=[[0,0.5],[1,0.5]];portConstraint=eastwest;whiteSpace=wrap;html=1;" parent="VpDtDvV46lMGRpjxMcqZ-10" vertex="1">
          <mxGeometry y="118" width="390" height="32" as="geometry" />
        </mxCell>
        <mxCell id="VpDtDvV46lMGRpjxMcqZ-19" value="+ findAll(page: number, size: number): Promise&amp;lt;PaginatedResource&amp;gt;" style="text;strokeColor=none;fillColor=none;align=left;verticalAlign=top;spacingLeft=4;spacingRight=4;overflow=hidden;rotatable=0;points=[[0,0.5],[1,0.5]];portConstraint=eastwest;whiteSpace=wrap;html=1;" parent="VpDtDvV46lMGRpjxMcqZ-10" vertex="1">
          <mxGeometry y="150" width="390" height="32" as="geometry" />
        </mxCell>
        <mxCell id="VpDtDvV46lMGRpjxMcqZ-20" value="+ create(name: String): Promise&amp;lt;Model&amp;gt;" style="text;strokeColor=none;fillColor=none;align=left;verticalAlign=top;spacingLeft=4;spacingRight=4;overflow=hidden;rotatable=0;points=[[0,0.5],[1,0.5]];portConstraint=eastwest;whiteSpace=wrap;html=1;" parent="VpDtDvV46lMGRpjxMcqZ-10" vertex="1">
          <mxGeometry y="182" width="390" height="32" as="geometry" />
        </mxCell>
        <mxCell id="VpDtDvV46lMGRpjxMcqZ-21" value="+ update(id: String, name: String): Promise&amp;lt;Model&amp;gt;" style="text;strokeColor=none;fillColor=none;align=left;verticalAlign=top;spacingLeft=4;spacingRight=4;overflow=hidden;rotatable=0;points=[[0,0.5],[1,0.5]];portConstraint=eastwest;whiteSpace=wrap;html=1;" parent="VpDtDvV46lMGRpjxMcqZ-10" vertex="1">
          <mxGeometry y="214" width="390" height="32" as="geometry" />
        </mxCell>
        <mxCell id="VpDtDvV46lMGRpjxMcqZ-22" value="+ delete(id: String): Promise&amp;lt;Model&amp;gt;" style="text;strokeColor=none;fillColor=none;align=left;verticalAlign=top;spacingLeft=4;spacingRight=4;overflow=hidden;rotatable=0;points=[[0,0.5],[1,0.5]];portConstraint=eastwest;whiteSpace=wrap;html=1;" parent="VpDtDvV46lMGRpjxMcqZ-10" vertex="1">
          <mxGeometry y="246" width="390" height="32" as="geometry" />
        </mxCell>
        <mxCell id="VpDtDvV46lMGRpjxMcqZ-43" style="edgeStyle=orthogonalEdgeStyle;rounded=0;orthogonalLoop=1;jettySize=auto;html=1;" parent="fLMmhs6oxU9pIg5j37gX-100" source="VpDtDvV46lMGRpjxMcqZ-1" target="VpDtDvV46lMGRpjxMcqZ-10" edge="1">
          <mxGeometry relative="1" as="geometry" />
        </mxCell>
        <mxCell id="VpDtDvV46lMGRpjxMcqZ-1" value="DepartmentModel" style="swimlane;fontStyle=0;childLayout=stackLayout;horizontal=1;startSize=26;fillColor=none;horizontalStack=0;resizeParent=1;resizeParentMax=0;resizeLast=0;collapsible=1;marginBottom=0;whiteSpace=wrap;html=1;" parent="fLMmhs6oxU9pIg5j37gX-100" vertex="1">
          <mxGeometry x="2315" y="110" width="240" height="78" as="geometry" />
        </mxCell>
        <mxCell id="VpDtDvV46lMGRpjxMcqZ-2" value="+ id: number" style="text;strokeColor=none;fillColor=none;align=left;verticalAlign=top;spacingLeft=4;spacingRight=4;overflow=hidden;rotatable=0;points=[[0,0.5],[1,0.5]];portConstraint=eastwest;whiteSpace=wrap;html=1;" parent="VpDtDvV46lMGRpjxMcqZ-1" vertex="1">
          <mxGeometry y="26" width="240" height="26" as="geometry" />
        </mxCell>
        <mxCell id="VpDtDvV46lMGRpjxMcqZ-3" value="+ name: String" style="text;strokeColor=none;fillColor=none;align=left;verticalAlign=top;spacingLeft=4;spacingRight=4;overflow=hidden;rotatable=0;points=[[0,0.5],[1,0.5]];portConstraint=eastwest;whiteSpace=wrap;html=1;" parent="VpDtDvV46lMGRpjxMcqZ-1" vertex="1">
          <mxGeometry y="52" width="240" height="26" as="geometry" />
        </mxCell>
        <mxCell id="VpDtDvV46lMGRpjxMcqZ-70" value="QuotationModel" style="swimlane;fontStyle=0;childLayout=stackLayout;horizontal=1;startSize=26;fillColor=none;horizontalStack=0;resizeParent=1;resizeParentMax=0;resizeLast=0;collapsible=1;marginBottom=0;whiteSpace=wrap;html=1;" parent="fLMmhs6oxU9pIg5j37gX-100" vertex="1">
          <mxGeometry x="3335" y="54" width="240" height="208" as="geometry" />
        </mxCell>
        <mxCell id="VpDtDvV46lMGRpjxMcqZ-71" value="+ id: number" style="text;strokeColor=none;fillColor=none;align=left;verticalAlign=top;spacingLeft=4;spacingRight=4;overflow=hidden;rotatable=0;points=[[0,0.5],[1,0.5]];portConstraint=eastwest;whiteSpace=wrap;html=1;" parent="VpDtDvV46lMGRpjxMcqZ-70" vertex="1">
          <mxGeometry y="26" width="240" height="26" as="geometry" />
        </mxCell>
        <mxCell id="VpDtDvV46lMGRpjxMcqZ-72" value="+ productId: number" style="text;strokeColor=none;fillColor=none;align=left;verticalAlign=top;spacingLeft=4;spacingRight=4;overflow=hidden;rotatable=0;points=[[0,0.5],[1,0.5]];portConstraint=eastwest;whiteSpace=wrap;html=1;" parent="VpDtDvV46lMGRpjxMcqZ-70" vertex="1">
          <mxGeometry y="52" width="240" height="26" as="geometry" />
        </mxCell>
        <mxCell id="VpDtDvV46lMGRpjxMcqZ-73" value="+ supplierId: number" style="text;strokeColor=none;fillColor=none;align=left;verticalAlign=top;spacingLeft=4;spacingRight=4;overflow=hidden;rotatable=0;points=[[0,0.5],[1,0.5]];portConstraint=eastwest;whiteSpace=wrap;html=1;" parent="VpDtDvV46lMGRpjxMcqZ-70" vertex="1">
          <mxGeometry y="78" width="240" height="26" as="geometry" />
        </mxCell>
        <mxCell id="VpDtDvV46lMGRpjxMcqZ-76" value="+ costCenterId: number" style="text;strokeColor=none;fillColor=none;align=left;verticalAlign=top;spacingLeft=4;spacingRight=4;overflow=hidden;rotatable=0;points=[[0,0.5],[1,0.5]];portConstraint=eastwest;whiteSpace=wrap;html=1;" parent="VpDtDvV46lMGRpjxMcqZ-70" vertex="1">
          <mxGeometry y="104" width="240" height="26" as="geometry" />
        </mxCell>
        <mxCell id="VpDtDvV46lMGRpjxMcqZ-74" value="+ price: double" style="text;strokeColor=none;fillColor=none;align=left;verticalAlign=top;spacingLeft=4;spacingRight=4;overflow=hidden;rotatable=0;points=[[0,0.5],[1,0.5]];portConstraint=eastwest;whiteSpace=wrap;html=1;" parent="VpDtDvV46lMGRpjxMcqZ-70" vertex="1">
          <mxGeometry y="130" width="240" height="26" as="geometry" />
        </mxCell>
        <mxCell id="VpDtDvV46lMGRpjxMcqZ-75" value="+ date: Date" style="text;strokeColor=none;fillColor=none;align=left;verticalAlign=top;spacingLeft=4;spacingRight=4;overflow=hidden;rotatable=0;points=[[0,0.5],[1,0.5]];portConstraint=eastwest;whiteSpace=wrap;html=1;" parent="VpDtDvV46lMGRpjxMcqZ-70" vertex="1">
          <mxGeometry y="156" width="240" height="26" as="geometry" />
        </mxCell>
        <mxCell id="VpDtDvV46lMGRpjxMcqZ-77" value="+ expirationDate: Date" style="text;strokeColor=none;fillColor=none;align=left;verticalAlign=top;spacingLeft=4;spacingRight=4;overflow=hidden;rotatable=0;points=[[0,0.5],[1,0.5]];portConstraint=eastwest;whiteSpace=wrap;html=1;" parent="VpDtDvV46lMGRpjxMcqZ-70" vertex="1">
          <mxGeometry y="182" width="240" height="26" as="geometry" />
        </mxCell>
        <mxCell id="VpDtDvV46lMGRpjxMcqZ-100" value="PurchaseModel" style="swimlane;fontStyle=0;childLayout=stackLayout;horizontal=1;startSize=26;fillColor=none;horizontalStack=0;resizeParent=1;resizeParentMax=0;resizeLast=0;collapsible=1;marginBottom=0;whiteSpace=wrap;html=1;" parent="fLMmhs6oxU9pIg5j37gX-100" vertex="1">
          <mxGeometry x="3855" y="47" width="240" height="208" as="geometry" />
        </mxCell>
        <mxCell id="VpDtDvV46lMGRpjxMcqZ-101" value="+ id: number" style="text;strokeColor=none;fillColor=none;align=left;verticalAlign=top;spacingLeft=4;spacingRight=4;overflow=hidden;rotatable=0;points=[[0,0.5],[1,0.5]];portConstraint=eastwest;whiteSpace=wrap;html=1;" parent="VpDtDvV46lMGRpjxMcqZ-100" vertex="1">
          <mxGeometry y="26" width="240" height="26" as="geometry" />
        </mxCell>
        <mxCell id="VpDtDvV46lMGRpjxMcqZ-102" value="+ quotationId: number" style="text;strokeColor=none;fillColor=none;align=left;verticalAlign=top;spacingLeft=4;spacingRight=4;overflow=hidden;rotatable=0;points=[[0,0.5],[1,0.5]];portConstraint=eastwest;whiteSpace=wrap;html=1;" parent="VpDtDvV46lMGRpjxMcqZ-100" vertex="1">
          <mxGeometry y="52" width="240" height="26" as="geometry" />
        </mxCell>
        <mxCell id="VpDtDvV46lMGRpjxMcqZ-103" value="+ quantity: number" style="text;strokeColor=none;fillColor=none;align=left;verticalAlign=top;spacingLeft=4;spacingRight=4;overflow=hidden;rotatable=0;points=[[0,0.5],[1,0.5]];portConstraint=eastwest;whiteSpace=wrap;html=1;" parent="VpDtDvV46lMGRpjxMcqZ-100" vertex="1">
          <mxGeometry y="78" width="240" height="26" as="geometry" />
        </mxCell>
        <mxCell id="VpDtDvV46lMGRpjxMcqZ-104" value="+ unitaryPrice: number" style="text;strokeColor=none;fillColor=none;align=left;verticalAlign=top;spacingLeft=4;spacingRight=4;overflow=hidden;rotatable=0;points=[[0,0.5],[1,0.5]];portConstraint=eastwest;whiteSpace=wrap;html=1;" parent="VpDtDvV46lMGRpjxMcqZ-100" vertex="1">
          <mxGeometry y="104" width="240" height="26" as="geometry" />
        </mxCell>
        <mxCell id="VpDtDvV46lMGRpjxMcqZ-134" value="+ purchaseRequestId: number" style="text;strokeColor=none;fillColor=none;align=left;verticalAlign=top;spacingLeft=4;spacingRight=4;overflow=hidden;rotatable=0;points=[[0,0.5],[1,0.5]];portConstraint=eastwest;whiteSpace=wrap;html=1;" parent="VpDtDvV46lMGRpjxMcqZ-100" vertex="1">
          <mxGeometry y="130" width="240" height="26" as="geometry" />
        </mxCell>
        <mxCell id="TzwoGXROkYAPexnYqHCg-52" value="+ invoice: String" style="text;strokeColor=none;fillColor=none;align=left;verticalAlign=top;spacingLeft=4;spacingRight=4;overflow=hidden;rotatable=0;points=[[0,0.5],[1,0.5]];portConstraint=eastwest;whiteSpace=wrap;html=1;" vertex="1" parent="VpDtDvV46lMGRpjxMcqZ-100">
          <mxGeometry y="156" width="240" height="26" as="geometry" />
        </mxCell>
        <mxCell id="TzwoGXROkYAPexnYqHCg-82" value="+ parcels: number" style="text;strokeColor=none;fillColor=none;align=left;verticalAlign=top;spacingLeft=4;spacingRight=4;overflow=hidden;rotatable=0;points=[[0,0.5],[1,0.5]];portConstraint=eastwest;whiteSpace=wrap;html=1;" vertex="1" parent="VpDtDvV46lMGRpjxMcqZ-100">
          <mxGeometry y="182" width="240" height="26" as="geometry" />
        </mxCell>
        <mxCell id="VpDtDvV46lMGRpjxMcqZ-127" value="PurchaseRequestModel" style="swimlane;fontStyle=0;childLayout=stackLayout;horizontal=1;startSize=26;fillColor=none;horizontalStack=0;resizeParent=1;resizeParentMax=0;resizeLast=0;collapsible=1;marginBottom=0;whiteSpace=wrap;html=1;" parent="fLMmhs6oxU9pIg5j37gX-100" vertex="1">
          <mxGeometry x="4445" y="63" width="240" height="202" as="geometry" />
        </mxCell>
        <mxCell id="VpDtDvV46lMGRpjxMcqZ-128" value="+ id: number" style="text;strokeColor=none;fillColor=none;align=left;verticalAlign=top;spacingLeft=4;spacingRight=4;overflow=hidden;rotatable=0;points=[[0,0.5],[1,0.5]];portConstraint=eastwest;whiteSpace=wrap;html=1;" parent="VpDtDvV46lMGRpjxMcqZ-127" vertex="1">
          <mxGeometry y="26" width="240" height="26" as="geometry" />
        </mxCell>
        <mxCell id="VpDtDvV46lMGRpjxMcqZ-130" value="+ userId: number" style="text;strokeColor=none;fillColor=none;align=left;verticalAlign=top;spacingLeft=4;spacingRight=4;overflow=hidden;rotatable=0;points=[[0,0.5],[1,0.5]];portConstraint=eastwest;whiteSpace=wrap;html=1;" parent="VpDtDvV46lMGRpjxMcqZ-127" vertex="1">
          <mxGeometry y="52" width="240" height="26" as="geometry" />
        </mxCell>
        <mxCell id="VpDtDvV46lMGRpjxMcqZ-135" value="+ productId: number" style="text;strokeColor=none;fillColor=none;align=left;verticalAlign=top;spacingLeft=4;spacingRight=4;overflow=hidden;rotatable=0;points=[[0,0.5],[1,0.5]];portConstraint=eastwest;whiteSpace=wrap;html=1;" parent="VpDtDvV46lMGRpjxMcqZ-127" vertex="1">
          <mxGeometry y="78" width="240" height="26" as="geometry" />
        </mxCell>
        <mxCell id="TzwoGXROkYAPexnYqHCg-81" value="+ quantity: number" style="text;strokeColor=none;fillColor=none;align=left;verticalAlign=top;spacingLeft=4;spacingRight=4;overflow=hidden;rotatable=0;points=[[0,0.5],[1,0.5]];portConstraint=eastwest;whiteSpace=wrap;html=1;" vertex="1" parent="VpDtDvV46lMGRpjxMcqZ-127">
          <mxGeometry y="104" width="240" height="26" as="geometry" />
        </mxCell>
        <mxCell id="VpDtDvV46lMGRpjxMcqZ-131" value="+ parcels: number" style="text;strokeColor=none;fillColor=none;align=left;verticalAlign=top;spacingLeft=4;spacingRight=4;overflow=hidden;rotatable=0;points=[[0,0.5],[1,0.5]];portConstraint=eastwest;whiteSpace=wrap;html=1;" parent="VpDtDvV46lMGRpjxMcqZ-127" vertex="1">
          <mxGeometry y="130" width="240" height="26" as="geometry" />
        </mxCell>
        <mxCell id="VpDtDvV46lMGRpjxMcqZ-136" value="+ status: &quot;PENDING&quot; | &quot;APPROVED&quot; | &quot;REJECTED&quot;" style="text;strokeColor=none;fillColor=none;align=left;verticalAlign=top;spacingLeft=4;spacingRight=4;overflow=hidden;rotatable=0;points=[[0,0.5],[1,0.5]];portConstraint=eastwest;whiteSpace=wrap;html=1;" parent="VpDtDvV46lMGRpjxMcqZ-127" vertex="1">
          <mxGeometry y="156" width="240" height="46" as="geometry" />
        </mxCell>
        <mxCell id="TzwoGXROkYAPexnYqHCg-29" value="FinancialSecurityToPayModel" style="swimlane;fontStyle=0;childLayout=stackLayout;horizontal=1;startSize=26;fillColor=none;horizontalStack=0;resizeParent=1;resizeParentMax=0;resizeLast=0;collapsible=1;marginBottom=0;whiteSpace=wrap;html=1;" vertex="1" parent="fLMmhs6oxU9pIg5j37gX-100">
          <mxGeometry x="4960" y="60" width="240" height="182" as="geometry" />
        </mxCell>
        <mxCell id="TzwoGXROkYAPexnYqHCg-30" value="+ id: number" style="text;strokeColor=none;fillColor=none;align=left;verticalAlign=top;spacingLeft=4;spacingRight=4;overflow=hidden;rotatable=0;points=[[0,0.5],[1,0.5]];portConstraint=eastwest;whiteSpace=wrap;html=1;" vertex="1" parent="TzwoGXROkYAPexnYqHCg-29">
          <mxGeometry y="26" width="240" height="26" as="geometry" />
        </mxCell>
        <mxCell id="TzwoGXROkYAPexnYqHCg-31" value="+ invoice: String" style="text;strokeColor=none;fillColor=none;align=left;verticalAlign=top;spacingLeft=4;spacingRight=4;overflow=hidden;rotatable=0;points=[[0,0.5],[1,0.5]];portConstraint=eastwest;whiteSpace=wrap;html=1;" vertex="1" parent="TzwoGXROkYAPexnYqHCg-29">
          <mxGeometry y="52" width="240" height="26" as="geometry" />
        </mxCell>
        <mxCell id="TzwoGXROkYAPexnYqHCg-32" value="+&amp;nbsp;parcels: number" style="text;strokeColor=none;fillColor=none;align=left;verticalAlign=top;spacingLeft=4;spacingRight=4;overflow=hidden;rotatable=0;points=[[0,0.5],[1,0.5]];portConstraint=eastwest;whiteSpace=wrap;html=1;" vertex="1" parent="TzwoGXROkYAPexnYqHCg-29">
          <mxGeometry y="78" width="240" height="26" as="geometry" />
        </mxCell>
        <mxCell id="TzwoGXROkYAPexnYqHCg-33" value="+ value: number" style="text;strokeColor=none;fillColor=none;align=left;verticalAlign=top;spacingLeft=4;spacingRight=4;overflow=hidden;rotatable=0;points=[[0,0.5],[1,0.5]];portConstraint=eastwest;whiteSpace=wrap;html=1;" vertex="1" parent="TzwoGXROkYAPexnYqHCg-29">
          <mxGeometry y="104" width="240" height="26" as="geometry" />
        </mxCell>
        <mxCell id="TzwoGXROkYAPexnYqHCg-34" value="+ expirationDate: Date" style="text;strokeColor=none;fillColor=none;align=left;verticalAlign=top;spacingLeft=4;spacingRight=4;overflow=hidden;rotatable=0;points=[[0,0.5],[1,0.5]];portConstraint=eastwest;whiteSpace=wrap;html=1;" vertex="1" parent="TzwoGXROkYAPexnYqHCg-29">
          <mxGeometry y="130" width="240" height="26" as="geometry" />
        </mxCell>
        <mxCell id="TzwoGXROkYAPexnYqHCg-36" value="+ status: &quot;OPENED&quot; | &quot;CLOSED&quot;" style="text;strokeColor=none;fillColor=none;align=left;verticalAlign=top;spacingLeft=4;spacingRight=4;overflow=hidden;rotatable=0;points=[[0,0.5],[1,0.5]];portConstraint=eastwest;whiteSpace=wrap;html=1;" vertex="1" parent="TzwoGXROkYAPexnYqHCg-29">
          <mxGeometry y="156" width="240" height="26" as="geometry" />
        </mxCell>
        <mxCell id="TzwoGXROkYAPexnYqHCg-99" value="MovementFinancialSecurityToPayModel" style="swimlane;fontStyle=0;childLayout=stackLayout;horizontal=1;startSize=26;fillColor=none;horizontalStack=0;resizeParent=1;resizeParentMax=0;resizeLast=0;collapsible=1;marginBottom=0;whiteSpace=wrap;html=1;" vertex="1" parent="fLMmhs6oxU9pIg5j37gX-100">
          <mxGeometry x="5440" y="54" width="290" height="208" as="geometry" />
        </mxCell>
        <mxCell id="TzwoGXROkYAPexnYqHCg-100" value="+ id: number" style="text;strokeColor=none;fillColor=none;align=left;verticalAlign=top;spacingLeft=4;spacingRight=4;overflow=hidden;rotatable=0;points=[[0,0.5],[1,0.5]];portConstraint=eastwest;whiteSpace=wrap;html=1;" vertex="1" parent="TzwoGXROkYAPexnYqHCg-99">
          <mxGeometry y="26" width="290" height="26" as="geometry" />
        </mxCell>
        <mxCell id="TzwoGXROkYAPexnYqHCg-101" value="+ financialSecurityToPayId: number" style="text;strokeColor=none;fillColor=none;align=left;verticalAlign=top;spacingLeft=4;spacingRight=4;overflow=hidden;rotatable=0;points=[[0,0.5],[1,0.5]];portConstraint=eastwest;whiteSpace=wrap;html=1;" vertex="1" parent="TzwoGXROkYAPexnYqHCg-99">
          <mxGeometry y="52" width="290" height="26" as="geometry" />
        </mxCell>
        <mxCell id="TzwoGXROkYAPexnYqHCg-102" value="+ date: Date" style="text;strokeColor=none;fillColor=none;align=left;verticalAlign=top;spacingLeft=4;spacingRight=4;overflow=hidden;rotatable=0;points=[[0,0.5],[1,0.5]];portConstraint=eastwest;whiteSpace=wrap;html=1;" vertex="1" parent="TzwoGXROkYAPexnYqHCg-99">
          <mxGeometry y="78" width="290" height="26" as="geometry" />
        </mxCell>
        <mxCell id="TzwoGXROkYAPexnYqHCg-103" value="+ type: &quot;OPENNING&quot; | &quot;PAYMENT&quot;" style="text;strokeColor=none;fillColor=none;align=left;verticalAlign=top;spacingLeft=4;spacingRight=4;overflow=hidden;rotatable=0;points=[[0,0.5],[1,0.5]];portConstraint=eastwest;whiteSpace=wrap;html=1;" vertex="1" parent="TzwoGXROkYAPexnYqHCg-99">
          <mxGeometry y="104" width="290" height="26" as="geometry" />
        </mxCell>
        <mxCell id="TzwoGXROkYAPexnYqHCg-104" value="+ value: number" style="text;strokeColor=none;fillColor=none;align=left;verticalAlign=top;spacingLeft=4;spacingRight=4;overflow=hidden;rotatable=0;points=[[0,0.5],[1,0.5]];portConstraint=eastwest;whiteSpace=wrap;html=1;" vertex="1" parent="TzwoGXROkYAPexnYqHCg-99">
          <mxGeometry y="130" width="290" height="26" as="geometry" />
        </mxCell>
        <mxCell id="TzwoGXROkYAPexnYqHCg-105" value="+ fineValue: number" style="text;strokeColor=none;fillColor=none;align=left;verticalAlign=top;spacingLeft=4;spacingRight=4;overflow=hidden;rotatable=0;points=[[0,0.5],[1,0.5]];portConstraint=eastwest;whiteSpace=wrap;html=1;" vertex="1" parent="TzwoGXROkYAPexnYqHCg-99">
          <mxGeometry y="156" width="290" height="26" as="geometry" />
        </mxCell>
        <mxCell id="TzwoGXROkYAPexnYqHCg-106" value="+ feeValue: number" style="text;strokeColor=none;fillColor=none;align=left;verticalAlign=top;spacingLeft=4;spacingRight=4;overflow=hidden;rotatable=0;points=[[0,0.5],[1,0.5]];portConstraint=eastwest;whiteSpace=wrap;html=1;" vertex="1" parent="TzwoGXROkYAPexnYqHCg-99">
          <mxGeometry y="182" width="290" height="26" as="geometry" />
        </mxCell>
        <mxCell id="fLMmhs6oxU9pIg5j37gX-105" value="Services" style="swimlane;whiteSpace=wrap;html=1;" parent="1" vertex="1">
          <mxGeometry x="60" y="1003" width="5890" height="507" as="geometry" />
        </mxCell>
        <mxCell id="fLMmhs6oxU9pIg5j37gX-90" value="UserService" style="swimlane;fontStyle=1;align=center;verticalAlign=top;childLayout=stackLayout;horizontal=1;startSize=26;horizontalStack=0;resizeParent=1;resizeParentMax=0;resizeLast=0;collapsible=1;marginBottom=0;whiteSpace=wrap;html=1;" parent="fLMmhs6oxU9pIg5j37gX-105" vertex="1">
          <mxGeometry x="40" y="47.5" width="390" height="276" as="geometry" />
        </mxCell>
        <mxCell id="fLMmhs6oxU9pIg5j37gX-91" value="+ userModel: UserModel" style="text;strokeColor=none;fillColor=none;align=left;verticalAlign=top;spacingLeft=4;spacingRight=4;overflow=hidden;rotatable=0;points=[[0,0.5],[1,0.5]];portConstraint=eastwest;whiteSpace=wrap;html=1;" parent="fLMmhs6oxU9pIg5j37gX-90" vertex="1">
          <mxGeometry y="26" width="390" height="26" as="geometry" />
        </mxCell>
        <mxCell id="fLMmhs6oxU9pIg5j37gX-92" value="+ passwordManager: PasswordManager" style="text;strokeColor=none;fillColor=none;align=left;verticalAlign=top;spacingLeft=4;spacingRight=4;overflow=hidden;rotatable=0;points=[[0,0.5],[1,0.5]];portConstraint=eastwest;whiteSpace=wrap;html=1;" parent="fLMmhs6oxU9pIg5j37gX-90" vertex="1">
          <mxGeometry y="52" width="390" height="26" as="geometry" />
        </mxCell>
        <mxCell id="fLMmhs6oxU9pIg5j37gX-93" value="+ tokenProvider: TokenProvider" style="text;strokeColor=none;fillColor=none;align=left;verticalAlign=top;spacingLeft=4;spacingRight=4;overflow=hidden;rotatable=0;points=[[0,0.5],[1,0.5]];portConstraint=eastwest;whiteSpace=wrap;html=1;" parent="fLMmhs6oxU9pIg5j37gX-90" vertex="1">
          <mxGeometry y="78" width="390" height="26" as="geometry" />
        </mxCell>
        <mxCell id="fLMmhs6oxU9pIg5j37gX-94" value="+ paginatedSearcher: PaginatedSearcher" style="text;strokeColor=none;fillColor=none;align=left;verticalAlign=top;spacingLeft=4;spacingRight=4;overflow=hidden;rotatable=0;points=[[0,0.5],[1,0.5]];portConstraint=eastwest;whiteSpace=wrap;html=1;" parent="fLMmhs6oxU9pIg5j37gX-90" vertex="1">
          <mxGeometry y="104" width="390" height="26" as="geometry" />
        </mxCell>
        <mxCell id="fLMmhs6oxU9pIg5j37gX-96" value="" style="line;strokeWidth=1;fillColor=none;align=left;verticalAlign=middle;spacingTop=-1;spacingLeft=3;spacingRight=3;rotatable=0;labelPosition=right;points=[];portConstraint=eastwest;strokeColor=inherit;" parent="fLMmhs6oxU9pIg5j37gX-90" vertex="1">
          <mxGeometry y="130" width="390" height="8" as="geometry" />
        </mxCell>
        <mxCell id="fLMmhs6oxU9pIg5j37gX-138" value="+ UserService(userModel, passwordManager, tokenProvider, paginatedSearcher): this" style="text;strokeColor=none;fillColor=none;align=left;verticalAlign=top;spacingLeft=4;spacingRight=4;overflow=hidden;rotatable=0;points=[[0,0.5],[1,0.5]];portConstraint=eastwest;whiteSpace=wrap;html=1;" parent="fLMmhs6oxU9pIg5j37gX-90" vertex="1">
          <mxGeometry y="138" width="390" height="42" as="geometry" />
        </mxCell>
        <mxCell id="fLMmhs6oxU9pIg5j37gX-97" value="+ login(email: String, password: String): Promise&amp;lt;String&amp;gt;" style="text;strokeColor=none;fillColor=none;align=left;verticalAlign=top;spacingLeft=4;spacingRight=4;overflow=hidden;rotatable=0;points=[[0,0.5],[1,0.5]];portConstraint=eastwest;whiteSpace=wrap;html=1;" parent="fLMmhs6oxU9pIg5j37gX-90" vertex="1">
          <mxGeometry y="180" width="390" height="32" as="geometry" />
        </mxCell>
        <mxCell id="fLMmhs6oxU9pIg5j37gX-98" value="+ register(email: String, password: String, depositId: number): Promise&amp;lt;Model&amp;gt;" style="text;strokeColor=none;fillColor=none;align=left;verticalAlign=top;spacingLeft=4;spacingRight=4;overflow=hidden;rotatable=0;points=[[0,0.5],[1,0.5]];portConstraint=eastwest;whiteSpace=wrap;html=1;" parent="fLMmhs6oxU9pIg5j37gX-90" vertex="1">
          <mxGeometry y="212" width="390" height="32" as="geometry" />
        </mxCell>
        <mxCell id="fLMmhs6oxU9pIg5j37gX-99" value="+ findAll(page: number, size: number): Promise&amp;lt;PaginatedResource&amp;gt;" style="text;strokeColor=none;fillColor=none;align=left;verticalAlign=top;spacingLeft=4;spacingRight=4;overflow=hidden;rotatable=0;points=[[0,0.5],[1,0.5]];portConstraint=eastwest;whiteSpace=wrap;html=1;" parent="fLMmhs6oxU9pIg5j37gX-90" vertex="1">
          <mxGeometry y="244" width="390" height="32" as="geometry" />
        </mxCell>
        <mxCell id="fLMmhs6oxU9pIg5j37gX-127" value="ProductService" style="swimlane;fontStyle=1;align=center;verticalAlign=top;childLayout=stackLayout;horizontal=1;startSize=26;horizontalStack=0;resizeParent=1;resizeParentMax=0;resizeLast=0;collapsible=1;marginBottom=0;whiteSpace=wrap;html=1;" parent="fLMmhs6oxU9pIg5j37gX-105" vertex="1">
          <mxGeometry x="460" y="46.5" width="510" height="252" as="geometry" />
        </mxCell>
        <mxCell id="fLMmhs6oxU9pIg5j37gX-128" value="+ productModel: ProductModel" style="text;strokeColor=none;fillColor=none;align=left;verticalAlign=top;spacingLeft=4;spacingRight=4;overflow=hidden;rotatable=0;points=[[0,0.5],[1,0.5]];portConstraint=eastwest;whiteSpace=wrap;html=1;" parent="fLMmhs6oxU9pIg5j37gX-127" vertex="1">
          <mxGeometry y="26" width="510" height="26" as="geometry" />
        </mxCell>
        <mxCell id="fLMmhs6oxU9pIg5j37gX-132" value="" style="line;strokeWidth=1;fillColor=none;align=left;verticalAlign=middle;spacingTop=-1;spacingLeft=3;spacingRight=3;rotatable=0;labelPosition=right;points=[];portConstraint=eastwest;strokeColor=inherit;" parent="fLMmhs6oxU9pIg5j37gX-127" vertex="1">
          <mxGeometry y="52" width="510" height="8" as="geometry" />
        </mxCell>
        <mxCell id="fLMmhs6oxU9pIg5j37gX-139" value="+ ProductService(productModel): this" style="text;strokeColor=none;fillColor=none;align=left;verticalAlign=top;spacingLeft=4;spacingRight=4;overflow=hidden;rotatable=0;points=[[0,0.5],[1,0.5]];portConstraint=eastwest;whiteSpace=wrap;html=1;" parent="fLMmhs6oxU9pIg5j37gX-127" vertex="1">
          <mxGeometry y="60" width="510" height="32" as="geometry" />
        </mxCell>
        <mxCell id="fLMmhs6oxU9pIg5j37gX-133" value="+ findById(id: number): ProductModel | null" style="text;strokeColor=none;fillColor=none;align=left;verticalAlign=top;spacingLeft=4;spacingRight=4;overflow=hidden;rotatable=0;points=[[0,0.5],[1,0.5]];portConstraint=eastwest;whiteSpace=wrap;html=1;" parent="fLMmhs6oxU9pIg5j37gX-127" vertex="1">
          <mxGeometry y="92" width="510" height="32" as="geometry" />
        </mxCell>
        <mxCell id="fLMmhs6oxU9pIg5j37gX-134" value="+ create(name: string, description: string, isActive: boolean): Promise&amp;lt;Model&amp;gt;" style="text;strokeColor=none;fillColor=none;align=left;verticalAlign=top;spacingLeft=4;spacingRight=4;overflow=hidden;rotatable=0;points=[[0,0.5],[1,0.5]];portConstraint=eastwest;whiteSpace=wrap;html=1;" parent="fLMmhs6oxU9pIg5j37gX-127" vertex="1">
          <mxGeometry y="124" width="510" height="32" as="geometry" />
        </mxCell>
        <mxCell id="fLMmhs6oxU9pIg5j37gX-135" value="+ update(id: number, name: string, description: string, isActive: boolean): Promise&amp;lt;Model&amp;gt;&amp;nbsp;" style="text;strokeColor=none;fillColor=none;align=left;verticalAlign=top;spacingLeft=4;spacingRight=4;overflow=hidden;rotatable=0;points=[[0,0.5],[1,0.5]];portConstraint=eastwest;whiteSpace=wrap;html=1;" parent="fLMmhs6oxU9pIg5j37gX-127" vertex="1">
          <mxGeometry y="156" width="510" height="32" as="geometry" />
        </mxCell>
        <mxCell id="fLMmhs6oxU9pIg5j37gX-137" value="+ delete(id: number): Promise&amp;lt;void&amp;gt;&amp;nbsp;" style="text;strokeColor=none;fillColor=none;align=left;verticalAlign=top;spacingLeft=4;spacingRight=4;overflow=hidden;rotatable=0;points=[[0,0.5],[1,0.5]];portConstraint=eastwest;whiteSpace=wrap;html=1;" parent="fLMmhs6oxU9pIg5j37gX-127" vertex="1">
          <mxGeometry y="188" width="510" height="32" as="geometry" />
        </mxCell>
        <mxCell id="fLMmhs6oxU9pIg5j37gX-171" value="+ findAll(page: number, size: number): Promise&amp;lt;PaginatedSearcher&amp;gt;" style="text;strokeColor=none;fillColor=none;align=left;verticalAlign=top;spacingLeft=4;spacingRight=4;overflow=hidden;rotatable=0;points=[[0,0.5],[1,0.5]];portConstraint=eastwest;whiteSpace=wrap;html=1;" parent="fLMmhs6oxU9pIg5j37gX-127" vertex="1">
          <mxGeometry y="220" width="510" height="32" as="geometry" />
        </mxCell>
        <mxCell id="fLMmhs6oxU9pIg5j37gX-162" value="DepositService" style="swimlane;fontStyle=1;align=center;verticalAlign=top;childLayout=stackLayout;horizontal=1;startSize=26;horizontalStack=0;resizeParent=1;resizeParentMax=0;resizeLast=0;collapsible=1;marginBottom=0;whiteSpace=wrap;html=1;" parent="fLMmhs6oxU9pIg5j37gX-105" vertex="1">
          <mxGeometry x="1015" y="46.5" width="510" height="278" as="geometry" />
        </mxCell>
        <mxCell id="fLMmhs6oxU9pIg5j37gX-163" value="+ depositModel: DepositModel" style="text;strokeColor=none;fillColor=none;align=left;verticalAlign=top;spacingLeft=4;spacingRight=4;overflow=hidden;rotatable=0;points=[[0,0.5],[1,0.5]];portConstraint=eastwest;whiteSpace=wrap;html=1;" parent="fLMmhs6oxU9pIg5j37gX-162" vertex="1">
          <mxGeometry y="26" width="510" height="26" as="geometry" />
        </mxCell>
        <mxCell id="fLMmhs6oxU9pIg5j37gX-170" value="+ paginatedSearcher: PaginatedSearcher" style="text;strokeColor=none;fillColor=none;align=left;verticalAlign=top;spacingLeft=4;spacingRight=4;overflow=hidden;rotatable=0;points=[[0,0.5],[1,0.5]];portConstraint=eastwest;whiteSpace=wrap;html=1;" parent="fLMmhs6oxU9pIg5j37gX-162" vertex="1">
          <mxGeometry y="52" width="510" height="26" as="geometry" />
        </mxCell>
        <mxCell id="fLMmhs6oxU9pIg5j37gX-164" value="" style="line;strokeWidth=1;fillColor=none;align=left;verticalAlign=middle;spacingTop=-1;spacingLeft=3;spacingRight=3;rotatable=0;labelPosition=right;points=[];portConstraint=eastwest;strokeColor=inherit;" parent="fLMmhs6oxU9pIg5j37gX-162" vertex="1">
          <mxGeometry y="78" width="510" height="8" as="geometry" />
        </mxCell>
        <mxCell id="fLMmhs6oxU9pIg5j37gX-165" value="+ DepositService(depositModel, paginatedSearcher)" style="text;strokeColor=none;fillColor=none;align=left;verticalAlign=top;spacingLeft=4;spacingRight=4;overflow=hidden;rotatable=0;points=[[0,0.5],[1,0.5]];portConstraint=eastwest;whiteSpace=wrap;html=1;" parent="fLMmhs6oxU9pIg5j37gX-162" vertex="1">
          <mxGeometry y="86" width="510" height="32" as="geometry" />
        </mxCell>
        <mxCell id="fLMmhs6oxU9pIg5j37gX-166" value="+ findById(id: number): ProductModel | null" style="text;strokeColor=none;fillColor=none;align=left;verticalAlign=top;spacingLeft=4;spacingRight=4;overflow=hidden;rotatable=0;points=[[0,0.5],[1,0.5]];portConstraint=eastwest;whiteSpace=wrap;html=1;" parent="fLMmhs6oxU9pIg5j37gX-162" vertex="1">
          <mxGeometry y="118" width="510" height="32" as="geometry" />
        </mxCell>
        <mxCell id="fLMmhs6oxU9pIg5j37gX-167" value="+ create(name: string, description: string, isActive: boolean): Promise&amp;lt;Model&amp;gt;" style="text;strokeColor=none;fillColor=none;align=left;verticalAlign=top;spacingLeft=4;spacingRight=4;overflow=hidden;rotatable=0;points=[[0,0.5],[1,0.5]];portConstraint=eastwest;whiteSpace=wrap;html=1;" parent="fLMmhs6oxU9pIg5j37gX-162" vertex="1">
          <mxGeometry y="150" width="510" height="32" as="geometry" />
        </mxCell>
        <mxCell id="fLMmhs6oxU9pIg5j37gX-168" value="+ update(id: number, name: string, description: string, isActive: boolean): Promise&amp;lt;Model&amp;gt;&amp;nbsp;" style="text;strokeColor=none;fillColor=none;align=left;verticalAlign=top;spacingLeft=4;spacingRight=4;overflow=hidden;rotatable=0;points=[[0,0.5],[1,0.5]];portConstraint=eastwest;whiteSpace=wrap;html=1;" parent="fLMmhs6oxU9pIg5j37gX-162" vertex="1">
          <mxGeometry y="182" width="510" height="32" as="geometry" />
        </mxCell>
        <mxCell id="fLMmhs6oxU9pIg5j37gX-169" value="+ delete(id: number): Promise&amp;lt;void&amp;gt;&amp;nbsp;" style="text;strokeColor=none;fillColor=none;align=left;verticalAlign=top;spacingLeft=4;spacingRight=4;overflow=hidden;rotatable=0;points=[[0,0.5],[1,0.5]];portConstraint=eastwest;whiteSpace=wrap;html=1;" parent="fLMmhs6oxU9pIg5j37gX-162" vertex="1">
          <mxGeometry y="214" width="510" height="32" as="geometry" />
        </mxCell>
        <mxCell id="fLMmhs6oxU9pIg5j37gX-174" value="+ findAll(page: number, size: number): Promise&amp;lt;PaginatedSearcher&amp;gt;" style="text;strokeColor=none;fillColor=none;align=left;verticalAlign=top;spacingLeft=4;spacingRight=4;overflow=hidden;rotatable=0;points=[[0,0.5],[1,0.5]];portConstraint=eastwest;whiteSpace=wrap;html=1;" parent="fLMmhs6oxU9pIg5j37gX-162" vertex="1">
          <mxGeometry y="246" width="510" height="32" as="geometry" />
        </mxCell>
        <mxCell id="fLMmhs6oxU9pIg5j37gX-203" value="ProductMovementService" style="swimlane;fontStyle=1;align=center;verticalAlign=top;childLayout=stackLayout;horizontal=1;startSize=26;horizontalStack=0;resizeParent=1;resizeParentMax=0;resizeLast=0;collapsible=1;marginBottom=0;whiteSpace=wrap;html=1;" parent="fLMmhs6oxU9pIg5j37gX-105" vertex="1">
          <mxGeometry x="1590" y="46.5" width="510" height="414" as="geometry" />
        </mxCell>
        <mxCell id="fLMmhs6oxU9pIg5j37gX-204" value="+ productMovementModel: ProductMovementModel" style="text;strokeColor=none;fillColor=none;align=left;verticalAlign=top;spacingLeft=4;spacingRight=4;overflow=hidden;rotatable=0;points=[[0,0.5],[1,0.5]];portConstraint=eastwest;whiteSpace=wrap;html=1;" parent="fLMmhs6oxU9pIg5j37gX-203" vertex="1">
          <mxGeometry y="26" width="510" height="26" as="geometry" />
        </mxCell>
        <mxCell id="fLMmhs6oxU9pIg5j37gX-205" value="+ paginatedSearcher: PaginatedSearcher" style="text;strokeColor=none;fillColor=none;align=left;verticalAlign=top;spacingLeft=4;spacingRight=4;overflow=hidden;rotatable=0;points=[[0,0.5],[1,0.5]];portConstraint=eastwest;whiteSpace=wrap;html=1;" parent="fLMmhs6oxU9pIg5j37gX-203" vertex="1">
          <mxGeometry y="52" width="510" height="26" as="geometry" />
        </mxCell>
        <mxCell id="fLMmhs6oxU9pIg5j37gX-206" value="" style="line;strokeWidth=1;fillColor=none;align=left;verticalAlign=middle;spacingTop=-1;spacingLeft=3;spacingRight=3;rotatable=0;labelPosition=right;points=[];portConstraint=eastwest;strokeColor=inherit;" parent="fLMmhs6oxU9pIg5j37gX-203" vertex="1">
          <mxGeometry y="78" width="510" height="8" as="geometry" />
        </mxCell>
        <mxCell id="fLMmhs6oxU9pIg5j37gX-207" value="+ ProductMovementService(productMovementModel, paginatedSearcher): this" style="text;strokeColor=none;fillColor=none;align=left;verticalAlign=top;spacingLeft=4;spacingRight=4;overflow=hidden;rotatable=0;points=[[0,0.5],[1,0.5]];portConstraint=eastwest;whiteSpace=wrap;html=1;" parent="fLMmhs6oxU9pIg5j37gX-203" vertex="1">
          <mxGeometry y="86" width="510" height="32" as="geometry" />
        </mxCell>
        <mxCell id="fLMmhs6oxU9pIg5j37gX-209" value="+ create(depositId: number, productId: number, movementType: &quot;IN&quot; | &quot;OUT&quot;, quantity: number, unitaryPrice: number, date: Date): Promise&amp;lt;ProductMovementModel&amp;gt;" style="text;strokeColor=none;fillColor=none;align=left;verticalAlign=top;spacingLeft=4;spacingRight=4;overflow=hidden;rotatable=0;points=[[0,0.5],[1,0.5]];portConstraint=eastwest;whiteSpace=wrap;html=1;" parent="fLMmhs6oxU9pIg5j37gX-203" vertex="1">
          <mxGeometry y="118" width="510" height="42" as="geometry" />
        </mxCell>
        <mxCell id="fLMmhs6oxU9pIg5j37gX-208" value="+ findById(id: number): ProductMovementModel | null" style="text;strokeColor=none;fillColor=none;align=left;verticalAlign=top;spacingLeft=4;spacingRight=4;overflow=hidden;rotatable=0;points=[[0,0.5],[1,0.5]];portConstraint=eastwest;whiteSpace=wrap;html=1;" parent="fLMmhs6oxU9pIg5j37gX-203" vertex="1">
          <mxGeometry y="160" width="510" height="32" as="geometry" />
        </mxCell>
        <mxCell id="YwlA8bpm41kjBRWY-kJj-1" value="+ findAll(page: number, size: number): Promise&amp;lt;PaginatedResource&amp;gt;" style="text;strokeColor=none;fillColor=none;align=left;verticalAlign=top;spacingLeft=4;spacingRight=4;overflow=hidden;rotatable=0;points=[[0,0.5],[1,0.5]];portConstraint=eastwest;whiteSpace=wrap;html=1;" parent="fLMmhs6oxU9pIg5j37gX-203" vertex="1">
          <mxGeometry y="192" width="510" height="32" as="geometry" />
        </mxCell>
        <mxCell id="YwlA8bpm41kjBRWY-kJj-2" value="+ findByProductId(productId: number, page: number, size: number): Promise&amp;lt;PaginatedResource&amp;gt;" style="text;strokeColor=none;fillColor=none;align=left;verticalAlign=top;spacingLeft=4;spacingRight=4;overflow=hidden;rotatable=0;points=[[0,0.5],[1,0.5]];portConstraint=eastwest;whiteSpace=wrap;html=1;" parent="fLMmhs6oxU9pIg5j37gX-203" vertex="1">
          <mxGeometry y="224" width="510" height="42" as="geometry" />
        </mxCell>
        <mxCell id="YwlA8bpm41kjBRWY-kJj-3" value="+ findByDepositId(depositId: number, page: number, size: number): Promise&amp;lt;PaginatedResource&amp;gt;" style="text;strokeColor=none;fillColor=none;align=left;verticalAlign=top;spacingLeft=4;spacingRight=4;overflow=hidden;rotatable=0;points=[[0,0.5],[1,0.5]];portConstraint=eastwest;whiteSpace=wrap;html=1;" parent="fLMmhs6oxU9pIg5j37gX-203" vertex="1">
          <mxGeometry y="266" width="510" height="42" as="geometry" />
        </mxCell>
        <mxCell id="fLMmhs6oxU9pIg5j37gX-210" value="+ findByDateInterval(startDate: Date, endDate: Date, page: number, size: number): Promise&amp;lt;PaginatedResource&amp;gt;" style="text;strokeColor=none;fillColor=none;align=left;verticalAlign=top;spacingLeft=4;spacingRight=4;overflow=hidden;rotatable=0;points=[[0,0.5],[1,0.5]];portConstraint=eastwest;whiteSpace=wrap;html=1;" parent="fLMmhs6oxU9pIg5j37gX-203" vertex="1">
          <mxGeometry y="308" width="510" height="42" as="geometry" />
        </mxCell>
        <mxCell id="fLMmhs6oxU9pIg5j37gX-211" value="+ countAvailableProducts(productId: number): Promise&amp;lt;PaginatedResource:" style="text;strokeColor=none;fillColor=none;align=left;verticalAlign=top;spacingLeft=4;spacingRight=4;overflow=hidden;rotatable=0;points=[[0,0.5],[1,0.5]];portConstraint=eastwest;whiteSpace=wrap;html=1;" parent="fLMmhs6oxU9pIg5j37gX-203" vertex="1">
          <mxGeometry y="350" width="510" height="32" as="geometry" />
        </mxCell>
        <mxCell id="fLMmhs6oxU9pIg5j37gX-212" value="+ calcMediumPrice(productId: number): Promise&amp;lt;number&amp;gt;" style="text;strokeColor=none;fillColor=none;align=left;verticalAlign=top;spacingLeft=4;spacingRight=4;overflow=hidden;rotatable=0;points=[[0,0.5],[1,0.5]];portConstraint=eastwest;whiteSpace=wrap;html=1;" parent="fLMmhs6oxU9pIg5j37gX-203" vertex="1">
          <mxGeometry y="382" width="510" height="32" as="geometry" />
        </mxCell>
        <mxCell id="VpDtDvV46lMGRpjxMcqZ-78" value="QuotationService" style="swimlane;fontStyle=1;align=center;verticalAlign=top;childLayout=stackLayout;horizontal=1;startSize=26;horizontalStack=0;resizeParent=1;resizeParentMax=0;resizeLast=0;collapsible=1;marginBottom=0;whiteSpace=wrap;html=1;" parent="fLMmhs6oxU9pIg5j37gX-105" vertex="1">
          <mxGeometry x="3260" y="87" width="390" height="360" as="geometry" />
        </mxCell>
        <mxCell id="VpDtDvV46lMGRpjxMcqZ-79" value="+ quotationModel: QuotationModel" style="text;strokeColor=none;fillColor=none;align=left;verticalAlign=top;spacingLeft=4;spacingRight=4;overflow=hidden;rotatable=0;points=[[0,0.5],[1,0.5]];portConstraint=eastwest;whiteSpace=wrap;html=1;" parent="VpDtDvV46lMGRpjxMcqZ-78" vertex="1">
          <mxGeometry y="26" width="390" height="26" as="geometry" />
        </mxCell>
        <mxCell id="VpDtDvV46lMGRpjxMcqZ-80" value="+ paginatedSearcher: PaginatedSearcher" style="text;strokeColor=none;fillColor=none;align=left;verticalAlign=top;spacingLeft=4;spacingRight=4;overflow=hidden;rotatable=0;points=[[0,0.5],[1,0.5]];portConstraint=eastwest;whiteSpace=wrap;html=1;" parent="VpDtDvV46lMGRpjxMcqZ-78" vertex="1">
          <mxGeometry y="52" width="390" height="26" as="geometry" />
        </mxCell>
        <mxCell id="VpDtDvV46lMGRpjxMcqZ-81" value="" style="line;strokeWidth=1;fillColor=none;align=left;verticalAlign=middle;spacingTop=-1;spacingLeft=3;spacingRight=3;rotatable=0;labelPosition=right;points=[];portConstraint=eastwest;strokeColor=inherit;" parent="VpDtDvV46lMGRpjxMcqZ-78" vertex="1">
          <mxGeometry y="78" width="390" height="8" as="geometry" />
        </mxCell>
        <mxCell id="VpDtDvV46lMGRpjxMcqZ-82" value="+ QuotationService(quotationModel, paginatedSearcher): this" style="text;strokeColor=none;fillColor=none;align=left;verticalAlign=top;spacingLeft=4;spacingRight=4;overflow=hidden;rotatable=0;points=[[0,0.5],[1,0.5]];portConstraint=eastwest;whiteSpace=wrap;html=1;" parent="VpDtDvV46lMGRpjxMcqZ-78" vertex="1">
          <mxGeometry y="86" width="390" height="32" as="geometry" />
        </mxCell>
        <mxCell id="VpDtDvV46lMGRpjxMcqZ-83" value="+ findById(id: number): Promise&amp;lt;Model | null&amp;gt;" style="text;strokeColor=none;fillColor=none;align=left;verticalAlign=top;spacingLeft=4;spacingRight=4;overflow=hidden;rotatable=0;points=[[0,0.5],[1,0.5]];portConstraint=eastwest;whiteSpace=wrap;html=1;" parent="VpDtDvV46lMGRpjxMcqZ-78" vertex="1">
          <mxGeometry y="118" width="390" height="32" as="geometry" />
        </mxCell>
        <mxCell id="VpDtDvV46lMGRpjxMcqZ-84" value="+ findAll(page: number, size: number): Promise&amp;lt;PaginatedResource&amp;gt;" style="text;strokeColor=none;fillColor=none;align=left;verticalAlign=top;spacingLeft=4;spacingRight=4;overflow=hidden;rotatable=0;points=[[0,0.5],[1,0.5]];portConstraint=eastwest;whiteSpace=wrap;html=1;" parent="VpDtDvV46lMGRpjxMcqZ-78" vertex="1">
          <mxGeometry y="150" width="390" height="32" as="geometry" />
        </mxCell>
        <mxCell id="VpDtDvV46lMGRpjxMcqZ-85" value="+ create(productId: number, supplierId: number, price: number, date: Date, costCenterId: number, expirationDate: Date): Promise&amp;lt;Model&amp;gt;" style="text;strokeColor=none;fillColor=none;align=left;verticalAlign=top;spacingLeft=4;spacingRight=4;overflow=hidden;rotatable=0;points=[[0,0.5],[1,0.5]];portConstraint=eastwest;whiteSpace=wrap;html=1;" parent="VpDtDvV46lMGRpjxMcqZ-78" vertex="1">
          <mxGeometry y="182" width="390" height="42" as="geometry" />
        </mxCell>
        <mxCell id="VpDtDvV46lMGRpjxMcqZ-88" value="+ findValidQuotationsByProduct(productId: number, page: number, size: number): Promise&amp;lt;PaginatedResource&amp;gt;" style="text;strokeColor=none;fillColor=none;align=left;verticalAlign=top;spacingLeft=4;spacingRight=4;overflow=hidden;rotatable=0;points=[[0,0.5],[1,0.5]];portConstraint=eastwest;whiteSpace=wrap;html=1;" parent="VpDtDvV46lMGRpjxMcqZ-78" vertex="1">
          <mxGeometry y="224" width="390" height="42" as="geometry" />
        </mxCell>
        <mxCell id="VpDtDvV46lMGRpjxMcqZ-86" value="+ update(id: String, productId: number, supplierId: number, price: number, date: Date, costCenterId: number, expirationDate: Date): Promise&amp;lt;Model&amp;gt;" style="text;strokeColor=none;fillColor=none;align=left;verticalAlign=top;spacingLeft=4;spacingRight=4;overflow=hidden;rotatable=0;points=[[0,0.5],[1,0.5]];portConstraint=eastwest;whiteSpace=wrap;html=1;" parent="VpDtDvV46lMGRpjxMcqZ-78" vertex="1">
          <mxGeometry y="266" width="390" height="62" as="geometry" />
        </mxCell>
        <mxCell id="VpDtDvV46lMGRpjxMcqZ-87" value="+ delete(id: String): Promise&amp;lt;Model&amp;gt;" style="text;strokeColor=none;fillColor=none;align=left;verticalAlign=top;spacingLeft=4;spacingRight=4;overflow=hidden;rotatable=0;points=[[0,0.5],[1,0.5]];portConstraint=eastwest;whiteSpace=wrap;html=1;" parent="VpDtDvV46lMGRpjxMcqZ-78" vertex="1">
          <mxGeometry y="328" width="390" height="32" as="geometry" />
        </mxCell>
        <mxCell id="VpDtDvV46lMGRpjxMcqZ-120" value="PurchaseService" style="swimlane;fontStyle=1;align=center;verticalAlign=top;childLayout=stackLayout;horizontal=1;startSize=26;horizontalStack=0;resizeParent=1;resizeParentMax=0;resizeLast=0;collapsible=1;marginBottom=0;whiteSpace=wrap;html=1;" parent="fLMmhs6oxU9pIg5j37gX-105" vertex="1">
          <mxGeometry x="3735" y="159" width="480" height="268" as="geometry" />
        </mxCell>
        <mxCell id="VpDtDvV46lMGRpjxMcqZ-121" value="+ purchaseModel: PurchaseModel" style="text;strokeColor=none;fillColor=none;align=left;verticalAlign=top;spacingLeft=4;spacingRight=4;overflow=hidden;rotatable=0;points=[[0,0.5],[1,0.5]];portConstraint=eastwest;whiteSpace=wrap;html=1;" parent="VpDtDvV46lMGRpjxMcqZ-120" vertex="1">
          <mxGeometry y="26" width="480" height="26" as="geometry" />
        </mxCell>
        <mxCell id="TzwoGXROkYAPexnYqHCg-17" value="+ quotationService: QuotationService" style="text;strokeColor=none;fillColor=none;align=left;verticalAlign=top;spacingLeft=4;spacingRight=4;overflow=hidden;rotatable=0;points=[[0,0.5],[1,0.5]];portConstraint=eastwest;whiteSpace=wrap;html=1;" vertex="1" parent="VpDtDvV46lMGRpjxMcqZ-120">
          <mxGeometry y="52" width="480" height="26" as="geometry" />
        </mxCell>
        <mxCell id="TzwoGXROkYAPexnYqHCg-18" value="+ productMovementService: ProductMovementService" style="text;strokeColor=none;fillColor=none;align=left;verticalAlign=top;spacingLeft=4;spacingRight=4;overflow=hidden;rotatable=0;points=[[0,0.5],[1,0.5]];portConstraint=eastwest;whiteSpace=wrap;html=1;" vertex="1" parent="VpDtDvV46lMGRpjxMcqZ-120">
          <mxGeometry y="78" width="480" height="26" as="geometry" />
        </mxCell>
        <mxCell id="TzwoGXROkYAPexnYqHCg-73" value="+ invoiceGenerator: InvoiceGenerator" style="text;strokeColor=none;fillColor=none;align=left;verticalAlign=top;spacingLeft=4;spacingRight=4;overflow=hidden;rotatable=0;points=[[0,0.5],[1,0.5]];portConstraint=eastwest;whiteSpace=wrap;html=1;" vertex="1" parent="VpDtDvV46lMGRpjxMcqZ-120">
          <mxGeometry y="104" width="480" height="26" as="geometry" />
        </mxCell>
        <mxCell id="VpDtDvV46lMGRpjxMcqZ-126" value="+ searcher: PaginatedSearcher" style="text;strokeColor=none;fillColor=none;align=left;verticalAlign=top;spacingLeft=4;spacingRight=4;overflow=hidden;rotatable=0;points=[[0,0.5],[1,0.5]];portConstraint=eastwest;whiteSpace=wrap;html=1;" parent="VpDtDvV46lMGRpjxMcqZ-120" vertex="1">
          <mxGeometry y="130" width="480" height="26" as="geometry" />
        </mxCell>
        <mxCell id="VpDtDvV46lMGRpjxMcqZ-122" value="" style="line;strokeWidth=1;fillColor=none;align=left;verticalAlign=middle;spacingTop=-1;spacingLeft=3;spacingRight=3;rotatable=0;labelPosition=right;points=[];portConstraint=eastwest;strokeColor=inherit;" parent="VpDtDvV46lMGRpjxMcqZ-120" vertex="1">
          <mxGeometry y="156" width="480" height="8" as="geometry" />
        </mxCell>
        <mxCell id="VpDtDvV46lMGRpjxMcqZ-123" value="+ findById(id: number): Promise&amp;lt;PurchaseModel&amp;gt;" style="text;strokeColor=none;fillColor=none;align=left;verticalAlign=top;spacingLeft=4;spacingRight=4;overflow=hidden;rotatable=0;points=[[0,0.5],[1,0.5]];portConstraint=eastwest;whiteSpace=wrap;html=1;" parent="VpDtDvV46lMGRpjxMcqZ-120" vertex="1">
          <mxGeometry y="164" width="480" height="26" as="geometry" />
        </mxCell>
        <mxCell id="VpDtDvV46lMGRpjxMcqZ-124" value="+ findAll(page: number, size: number): Promise&amp;lt;PaginatedResource&amp;gt;" style="text;strokeColor=none;fillColor=none;align=left;verticalAlign=top;spacingLeft=4;spacingRight=4;overflow=hidden;rotatable=0;points=[[0,0.5],[1,0.5]];portConstraint=eastwest;whiteSpace=wrap;html=1;" parent="VpDtDvV46lMGRpjxMcqZ-120" vertex="1">
          <mxGeometry y="190" width="480" height="26" as="geometry" />
        </mxCell>
        <mxCell id="TzwoGXROkYAPexnYqHCg-75" value="+ findByInvoice(invoice: String): Promise&amp;lt;PurchaseModel&amp;gt;" style="text;strokeColor=none;fillColor=none;align=left;verticalAlign=top;spacingLeft=4;spacingRight=4;overflow=hidden;rotatable=0;points=[[0,0.5],[1,0.5]];portConstraint=eastwest;whiteSpace=wrap;html=1;" vertex="1" parent="VpDtDvV46lMGRpjxMcqZ-120">
          <mxGeometry y="216" width="480" height="26" as="geometry" />
        </mxCell>
        <mxCell id="VpDtDvV46lMGRpjxMcqZ-125" value="+ create(purchaseRequestModel: PurchaseRequestModel): Promise&amp;lt;Model&amp;gt;" style="text;strokeColor=none;fillColor=none;align=left;verticalAlign=top;spacingLeft=4;spacingRight=4;overflow=hidden;rotatable=0;points=[[0,0.5],[1,0.5]];portConstraint=eastwest;whiteSpace=wrap;html=1;" parent="VpDtDvV46lMGRpjxMcqZ-120" vertex="1">
          <mxGeometry y="242" width="480" height="26" as="geometry" />
        </mxCell>
        <mxCell id="VpDtDvV46lMGRpjxMcqZ-144" value="PurchaseRequestService" style="swimlane;fontStyle=1;align=center;verticalAlign=top;childLayout=stackLayout;horizontal=1;startSize=26;horizontalStack=0;resizeParent=1;resizeParentMax=0;resizeLast=0;collapsible=1;marginBottom=0;whiteSpace=wrap;html=1;" parent="fLMmhs6oxU9pIg5j37gX-105" vertex="1">
          <mxGeometry x="4350" y="57" width="430" height="390" as="geometry" />
        </mxCell>
        <mxCell id="VpDtDvV46lMGRpjxMcqZ-145" value="+ purchaseRequestModel: PurchaseRequestModel&lt;span style=&quot;white-space: pre;&quot;&gt;&#x9;&lt;/span&gt;" style="text;strokeColor=none;fillColor=none;align=left;verticalAlign=top;spacingLeft=4;spacingRight=4;overflow=hidden;rotatable=0;points=[[0,0.5],[1,0.5]];portConstraint=eastwest;whiteSpace=wrap;html=1;" parent="VpDtDvV46lMGRpjxMcqZ-144" vertex="1">
          <mxGeometry y="26" width="430" height="26" as="geometry" />
        </mxCell>
        <mxCell id="TzwoGXROkYAPexnYqHCg-1" value="+ productMovementService: ProductMovementService" style="text;strokeColor=none;fillColor=none;align=left;verticalAlign=top;spacingLeft=4;spacingRight=4;overflow=hidden;rotatable=0;points=[[0,0.5],[1,0.5]];portConstraint=eastwest;whiteSpace=wrap;html=1;" vertex="1" parent="VpDtDvV46lMGRpjxMcqZ-144">
          <mxGeometry y="52" width="430" height="26" as="geometry" />
        </mxCell>
        <mxCell id="TzwoGXROkYAPexnYqHCg-2" value="+ purchaseService: PurchaseService" style="text;strokeColor=none;fillColor=none;align=left;verticalAlign=top;spacingLeft=4;spacingRight=4;overflow=hidden;rotatable=0;points=[[0,0.5],[1,0.5]];portConstraint=eastwest;whiteSpace=wrap;html=1;" vertex="1" parent="VpDtDvV46lMGRpjxMcqZ-144">
          <mxGeometry y="78" width="430" height="26" as="geometry" />
        </mxCell>
        <mxCell id="VpDtDvV46lMGRpjxMcqZ-155" value="+ paginatedSearcher: PaginatedSearcher" style="text;strokeColor=none;fillColor=none;align=left;verticalAlign=top;spacingLeft=4;spacingRight=4;overflow=hidden;rotatable=0;points=[[0,0.5],[1,0.5]];portConstraint=eastwest;whiteSpace=wrap;html=1;" parent="VpDtDvV46lMGRpjxMcqZ-144" vertex="1">
          <mxGeometry y="104" width="430" height="26" as="geometry" />
        </mxCell>
        <mxCell id="VpDtDvV46lMGRpjxMcqZ-147" value="" style="line;strokeWidth=1;fillColor=none;align=left;verticalAlign=middle;spacingTop=-1;spacingLeft=3;spacingRight=3;rotatable=0;labelPosition=right;points=[];portConstraint=eastwest;strokeColor=inherit;" parent="VpDtDvV46lMGRpjxMcqZ-144" vertex="1">
          <mxGeometry y="130" width="430" height="8" as="geometry" />
        </mxCell>
        <mxCell id="VpDtDvV46lMGRpjxMcqZ-148" value="+ PurchaseRequestService(purchaseRequestModel, productMovementService, purchaseService, paginatedSearcher): this" style="text;strokeColor=none;fillColor=none;align=left;verticalAlign=top;spacingLeft=4;spacingRight=4;overflow=hidden;rotatable=0;points=[[0,0.5],[1,0.5]];portConstraint=eastwest;whiteSpace=wrap;html=1;" parent="VpDtDvV46lMGRpjxMcqZ-144" vertex="1">
          <mxGeometry y="138" width="430" height="42" as="geometry" />
        </mxCell>
        <mxCell id="VpDtDvV46lMGRpjxMcqZ-149" value="+ findById(id: number): Promise&amp;lt;PurchaseRequest | null&amp;gt;" style="text;strokeColor=none;fillColor=none;align=left;verticalAlign=top;spacingLeft=4;spacingRight=4;overflow=hidden;rotatable=0;points=[[0,0.5],[1,0.5]];portConstraint=eastwest;whiteSpace=wrap;html=1;" parent="VpDtDvV46lMGRpjxMcqZ-144" vertex="1">
          <mxGeometry y="180" width="430" height="32" as="geometry" />
        </mxCell>
        <mxCell id="VpDtDvV46lMGRpjxMcqZ-150" value="+ findAll(page: number, size: number): Promise&amp;lt;PaginatedResource&amp;gt;" style="text;strokeColor=none;fillColor=none;align=left;verticalAlign=top;spacingLeft=4;spacingRight=4;overflow=hidden;rotatable=0;points=[[0,0.5],[1,0.5]];portConstraint=eastwest;whiteSpace=wrap;html=1;" parent="VpDtDvV46lMGRpjxMcqZ-144" vertex="1">
          <mxGeometry y="212" width="430" height="32" as="geometry" />
        </mxCell>
        <mxCell id="VpDtDvV46lMGRpjxMcqZ-151" value="+ create(userId: number, productId: number, depositId: number, quantity: number, parcels: number): Promise&amp;lt;PurchaseRequest&amp;gt;" style="text;strokeColor=none;fillColor=none;align=left;verticalAlign=top;spacingLeft=4;spacingRight=4;overflow=hidden;rotatable=0;points=[[0,0.5],[1,0.5]];portConstraint=eastwest;whiteSpace=wrap;html=1;" parent="VpDtDvV46lMGRpjxMcqZ-144" vertex="1">
          <mxGeometry y="244" width="430" height="42" as="geometry" />
        </mxCell>
        <mxCell id="TzwoGXROkYAPexnYqHCg-14" value="- _retireFromInternalDeposits(userId: number, productId: number, quantity: number, depositData: { depositId: number, quantity: number}[]): Promise&amp;lt;PurchaseRequest&amp;gt;" style="text;strokeColor=none;fillColor=none;align=left;verticalAlign=top;spacingLeft=4;spacingRight=4;overflow=hidden;rotatable=0;points=[[0,0.5],[1,0.5]];portConstraint=eastwest;whiteSpace=wrap;html=1;" vertex="1" parent="VpDtDvV46lMGRpjxMcqZ-144">
          <mxGeometry y="286" width="430" height="62" as="geometry" />
        </mxCell>
        <mxCell id="TzwoGXROkYAPexnYqHCg-15" value="- _buyFromBestQuotation(userId: number, productId: number, depositId: number, quantity: number, parcels: number): Promise&amp;lt;PurchaseRequest&amp;gt;" style="text;strokeColor=none;fillColor=none;align=left;verticalAlign=top;spacingLeft=4;spacingRight=4;overflow=hidden;rotatable=0;points=[[0,0.5],[1,0.5]];portConstraint=eastwest;whiteSpace=wrap;html=1;" vertex="1" parent="VpDtDvV46lMGRpjxMcqZ-144">
          <mxGeometry y="348" width="430" height="42" as="geometry" />
        </mxCell>
        <mxCell id="TzwoGXROkYAPexnYqHCg-37" value="FinancialSecurityToPayService" style="swimlane;fontStyle=1;align=center;verticalAlign=top;childLayout=stackLayout;horizontal=1;startSize=26;horizontalStack=0;resizeParent=1;resizeParentMax=0;resizeLast=0;collapsible=1;marginBottom=0;whiteSpace=wrap;html=1;" vertex="1" parent="fLMmhs6oxU9pIg5j37gX-105">
          <mxGeometry x="4870" y="83" width="420" height="318" as="geometry" />
        </mxCell>
        <mxCell id="TzwoGXROkYAPexnYqHCg-38" value="+ financialSecurityToPayModel: FinancialSecurityToPayModel" style="text;strokeColor=none;fillColor=none;align=left;verticalAlign=top;spacingLeft=4;spacingRight=4;overflow=hidden;rotatable=0;points=[[0,0.5],[1,0.5]];portConstraint=eastwest;whiteSpace=wrap;html=1;" vertex="1" parent="TzwoGXROkYAPexnYqHCg-37">
          <mxGeometry y="26" width="420" height="26" as="geometry" />
        </mxCell>
        <mxCell id="TzwoGXROkYAPexnYqHCg-78" value="+ paginatedSearcher: PaginatedSearcher" style="text;strokeColor=none;fillColor=none;align=left;verticalAlign=top;spacingLeft=4;spacingRight=4;overflow=hidden;rotatable=0;points=[[0,0.5],[1,0.5]];portConstraint=eastwest;whiteSpace=wrap;html=1;" vertex="1" parent="TzwoGXROkYAPexnYqHCg-37">
          <mxGeometry y="52" width="420" height="26" as="geometry" />
        </mxCell>
        <mxCell id="TzwoGXROkYAPexnYqHCg-39" value="" style="line;strokeWidth=1;fillColor=none;align=left;verticalAlign=middle;spacingTop=-1;spacingLeft=3;spacingRight=3;rotatable=0;labelPosition=right;points=[];portConstraint=eastwest;strokeColor=inherit;" vertex="1" parent="TzwoGXROkYAPexnYqHCg-37">
          <mxGeometry y="78" width="420" height="8" as="geometry" />
        </mxCell>
        <mxCell id="TzwoGXROkYAPexnYqHCg-51" value="+&amp;nbsp;&lt;span style=&quot;text-align: center;&quot;&gt;FinancialSecurityToPayService(model): this&lt;/span&gt;" style="text;strokeColor=none;fillColor=none;align=left;verticalAlign=top;spacingLeft=4;spacingRight=4;overflow=hidden;rotatable=0;points=[[0,0.5],[1,0.5]];portConstraint=eastwest;whiteSpace=wrap;html=1;" vertex="1" parent="TzwoGXROkYAPexnYqHCg-37">
          <mxGeometry y="86" width="420" height="26" as="geometry" />
        </mxCell>
        <mxCell id="TzwoGXROkYAPexnYqHCg-40" value="+ findById(id: number): Promise&amp;lt;FinancialSecurityToPayModel&amp;gt;" style="text;strokeColor=none;fillColor=none;align=left;verticalAlign=top;spacingLeft=4;spacingRight=4;overflow=hidden;rotatable=0;points=[[0,0.5],[1,0.5]];portConstraint=eastwest;whiteSpace=wrap;html=1;" vertex="1" parent="TzwoGXROkYAPexnYqHCg-37">
          <mxGeometry y="112" width="420" height="26" as="geometry" />
        </mxCell>
        <mxCell id="TzwoGXROkYAPexnYqHCg-41" value="+ findAll(page: number, size: number): Promise&amp;lt;PaginatedResource&amp;gt;" style="text;strokeColor=none;fillColor=none;align=left;verticalAlign=top;spacingLeft=4;spacingRight=4;overflow=hidden;rotatable=0;points=[[0,0.5],[1,0.5]];portConstraint=eastwest;whiteSpace=wrap;html=1;" vertex="1" parent="TzwoGXROkYAPexnYqHCg-37">
          <mxGeometry y="138" width="420" height="26" as="geometry" />
        </mxCell>
        <mxCell id="TzwoGXROkYAPexnYqHCg-42" value="+ findByInvoice(invoice: String): Promise&amp;lt;FinancialSecurityToPayModel&amp;gt;" style="text;strokeColor=none;fillColor=none;align=left;verticalAlign=top;spacingLeft=4;spacingRight=4;overflow=hidden;rotatable=0;points=[[0,0.5],[1,0.5]];portConstraint=eastwest;whiteSpace=wrap;html=1;" vertex="1" parent="TzwoGXROkYAPexnYqHCg-37">
          <mxGeometry y="164" width="420" height="26" as="geometry" />
        </mxCell>
        <mxCell id="TzwoGXROkYAPexnYqHCg-77" value="+ create(invoice: string, parcels: number, value: number, expirationDate: date): FinancialSecurityToPayModel" style="text;strokeColor=none;fillColor=none;align=left;verticalAlign=top;spacingLeft=4;spacingRight=4;overflow=hidden;rotatable=0;points=[[0,0.5],[1,0.5]];portConstraint=eastwest;whiteSpace=wrap;html=1;" vertex="1" parent="TzwoGXROkYAPexnYqHCg-37">
          <mxGeometry y="190" width="420" height="46" as="geometry" />
        </mxCell>
        <mxCell id="TzwoGXROkYAPexnYqHCg-79" value="+ update(id: number, invoice: string, parcels: number, value: number, expirationDate: date): FinancialSecurityToPayModel" style="text;strokeColor=none;fillColor=none;align=left;verticalAlign=top;spacingLeft=4;spacingRight=4;overflow=hidden;rotatable=0;points=[[0,0.5],[1,0.5]];portConstraint=eastwest;whiteSpace=wrap;html=1;" vertex="1" parent="TzwoGXROkYAPexnYqHCg-37">
          <mxGeometry y="236" width="420" height="46" as="geometry" />
        </mxCell>
        <mxCell id="TzwoGXROkYAPexnYqHCg-80" value="+ delete(id: number): FinancialSecurityToPayModel" style="text;strokeColor=none;fillColor=none;align=left;verticalAlign=top;spacingLeft=4;spacingRight=4;overflow=hidden;rotatable=0;points=[[0,0.5],[1,0.5]];portConstraint=eastwest;whiteSpace=wrap;html=1;" vertex="1" parent="TzwoGXROkYAPexnYqHCg-37">
          <mxGeometry y="282" width="420" height="36" as="geometry" />
        </mxCell>
        <mxCell id="TzwoGXROkYAPexnYqHCg-115" value="&lt;span style=&quot;font-weight: 400;&quot;&gt;MovementFinancialSecurityToPayService&lt;/span&gt;" style="swimlane;fontStyle=1;align=center;verticalAlign=top;childLayout=stackLayout;horizontal=1;startSize=26;horizontalStack=0;resizeParent=1;resizeParentMax=0;resizeLast=0;collapsible=1;marginBottom=0;whiteSpace=wrap;html=1;" vertex="1" parent="fLMmhs6oxU9pIg5j37gX-105">
          <mxGeometry x="5375" y="83" width="420" height="312" as="geometry" />
        </mxCell>
        <mxCell id="TzwoGXROkYAPexnYqHCg-116" value="+ financialSecurityToPayModel: FinancialSecurityToPayModel" style="text;strokeColor=none;fillColor=none;align=left;verticalAlign=top;spacingLeft=4;spacingRight=4;overflow=hidden;rotatable=0;points=[[0,0.5],[1,0.5]];portConstraint=eastwest;whiteSpace=wrap;html=1;" vertex="1" parent="TzwoGXROkYAPexnYqHCg-115">
          <mxGeometry y="26" width="420" height="26" as="geometry" />
        </mxCell>
        <mxCell id="TzwoGXROkYAPexnYqHCg-118" value="+ paginatedSearcher: PaginatedSearcher" style="text;strokeColor=none;fillColor=none;align=left;verticalAlign=top;spacingLeft=4;spacingRight=4;overflow=hidden;rotatable=0;points=[[0,0.5],[1,0.5]];portConstraint=eastwest;whiteSpace=wrap;html=1;" vertex="1" parent="TzwoGXROkYAPexnYqHCg-115">
          <mxGeometry y="52" width="420" height="26" as="geometry" />
        </mxCell>
        <mxCell id="TzwoGXROkYAPexnYqHCg-119" value="" style="line;strokeWidth=1;fillColor=none;align=left;verticalAlign=middle;spacingTop=-1;spacingLeft=3;spacingRight=3;rotatable=0;labelPosition=right;points=[];portConstraint=eastwest;strokeColor=inherit;" vertex="1" parent="TzwoGXROkYAPexnYqHCg-115">
          <mxGeometry y="78" width="420" height="8" as="geometry" />
        </mxCell>
        <mxCell id="TzwoGXROkYAPexnYqHCg-120" value="+&amp;nbsp;&lt;span style=&quot;text-align: center;&quot;&gt;MovementFinancialSecurityToPayService&lt;/span&gt;&lt;span style=&quot;text-align: center;&quot;&gt;(model, paginatedSearcher): this&lt;/span&gt;" style="text;strokeColor=none;fillColor=none;align=left;verticalAlign=top;spacingLeft=4;spacingRight=4;overflow=hidden;rotatable=0;points=[[0,0.5],[1,0.5]];portConstraint=eastwest;whiteSpace=wrap;html=1;" vertex="1" parent="TzwoGXROkYAPexnYqHCg-115">
          <mxGeometry y="86" width="420" height="26" as="geometry" />
        </mxCell>
        <mxCell id="TzwoGXROkYAPexnYqHCg-121" value="+ findById(id: number): Promise&amp;lt;&lt;span style=&quot;text-align: center;&quot;&gt;MovementFinancialSecurityToPayModel&lt;/span&gt;&amp;gt;" style="text;strokeColor=none;fillColor=none;align=left;verticalAlign=top;spacingLeft=4;spacingRight=4;overflow=hidden;rotatable=0;points=[[0,0.5],[1,0.5]];portConstraint=eastwest;whiteSpace=wrap;html=1;" vertex="1" parent="TzwoGXROkYAPexnYqHCg-115">
          <mxGeometry y="112" width="420" height="26" as="geometry" />
        </mxCell>
        <mxCell id="TzwoGXROkYAPexnYqHCg-122" value="+ findAll(page: number, size: number): Promise&amp;lt;PaginatedResource&amp;gt;" style="text;strokeColor=none;fillColor=none;align=left;verticalAlign=top;spacingLeft=4;spacingRight=4;overflow=hidden;rotatable=0;points=[[0,0.5],[1,0.5]];portConstraint=eastwest;whiteSpace=wrap;html=1;" vertex="1" parent="TzwoGXROkYAPexnYqHCg-115">
          <mxGeometry y="138" width="420" height="26" as="geometry" />
        </mxCell>
        <mxCell id="TzwoGXROkYAPexnYqHCg-124" value="+ create(financialSecurityToPayId: number: date: Date, type: &quot;OPENNING&quot; | &quot;PAYMENT&quot;, value: number, fineValue: number, feeValue: number):&amp;nbsp;&lt;span style=&quot;text-align: center;&quot;&gt;MovementFinancialSecurityToPayModel&lt;/span&gt;" style="text;strokeColor=none;fillColor=none;align=left;verticalAlign=top;spacingLeft=4;spacingRight=4;overflow=hidden;rotatable=0;points=[[0,0.5],[1,0.5]];portConstraint=eastwest;whiteSpace=wrap;html=1;" vertex="1" parent="TzwoGXROkYAPexnYqHCg-115">
          <mxGeometry y="164" width="420" height="56" as="geometry" />
        </mxCell>
        <mxCell id="TzwoGXROkYAPexnYqHCg-127" value="+ update(id: number, financialSecurityToPayId: number: date: Date, type: &quot;OPENNING&quot; | &quot;PAYMENT&quot;, value: number, fineValue: number, feeValue: number):&amp;nbsp;&lt;span style=&quot;text-align: center;&quot;&gt;MovementFinancialSecurityToPayModel&lt;/span&gt;" style="text;strokeColor=none;fillColor=none;align=left;verticalAlign=top;spacingLeft=4;spacingRight=4;overflow=hidden;rotatable=0;points=[[0,0.5],[1,0.5]];portConstraint=eastwest;whiteSpace=wrap;html=1;" vertex="1" parent="TzwoGXROkYAPexnYqHCg-115">
          <mxGeometry y="220" width="420" height="56" as="geometry" />
        </mxCell>
        <mxCell id="TzwoGXROkYAPexnYqHCg-126" value="+ delete(id: number):&amp;nbsp;&lt;span style=&quot;text-align: center;&quot;&gt;MovementFinancialSecurityToPayModel&lt;/span&gt;" style="text;strokeColor=none;fillColor=none;align=left;verticalAlign=top;spacingLeft=4;spacingRight=4;overflow=hidden;rotatable=0;points=[[0,0.5],[1,0.5]];portConstraint=eastwest;whiteSpace=wrap;html=1;" vertex="1" parent="TzwoGXROkYAPexnYqHCg-115">
          <mxGeometry y="276" width="420" height="36" as="geometry" />
        </mxCell>
        <mxCell id="fLMmhs6oxU9pIg5j37gX-110" style="edgeStyle=orthogonalEdgeStyle;rounded=0;orthogonalLoop=1;jettySize=auto;html=1;endArrow=none;endFill=0;dashed=1;" parent="1" source="fLMmhs6oxU9pIg5j37gX-101" target="fLMmhs6oxU9pIg5j37gX-90" edge="1">
          <mxGeometry relative="1" as="geometry" />
        </mxCell>
        <mxCell id="fLMmhs6oxU9pIg5j37gX-111" value="Controller" style="swimlane;whiteSpace=wrap;html=1;" parent="1" vertex="1">
          <mxGeometry x="60" y="1570" width="5890" height="393" as="geometry" />
        </mxCell>
        <mxCell id="fLMmhs6oxU9pIg5j37gX-112" value="UserController" style="swimlane;fontStyle=1;align=center;verticalAlign=top;childLayout=stackLayout;horizontal=1;startSize=26;horizontalStack=0;resizeParent=1;resizeParentMax=0;resizeLast=0;collapsible=1;marginBottom=0;whiteSpace=wrap;html=1;" parent="fLMmhs6oxU9pIg5j37gX-111" vertex="1">
          <mxGeometry x="40" y="70" width="390" height="188" as="geometry" />
        </mxCell>
        <mxCell id="fLMmhs6oxU9pIg5j37gX-113" value="+ userService: UserService" style="text;strokeColor=none;fillColor=none;align=left;verticalAlign=top;spacingLeft=4;spacingRight=4;overflow=hidden;rotatable=0;points=[[0,0.5],[1,0.5]];portConstraint=eastwest;whiteSpace=wrap;html=1;" parent="fLMmhs6oxU9pIg5j37gX-112" vertex="1">
          <mxGeometry y="26" width="390" height="26" as="geometry" />
        </mxCell>
        <mxCell id="fLMmhs6oxU9pIg5j37gX-117" value="" style="line;strokeWidth=1;fillColor=none;align=left;verticalAlign=middle;spacingTop=-1;spacingLeft=3;spacingRight=3;rotatable=0;labelPosition=right;points=[];portConstraint=eastwest;strokeColor=inherit;" parent="fLMmhs6oxU9pIg5j37gX-112" vertex="1">
          <mxGeometry y="52" width="390" height="8" as="geometry" />
        </mxCell>
        <mxCell id="fLMmhs6oxU9pIg5j37gX-155" value="+ UserController(userService): this" style="text;strokeColor=none;fillColor=none;align=left;verticalAlign=top;spacingLeft=4;spacingRight=4;overflow=hidden;rotatable=0;points=[[0,0.5],[1,0.5]];portConstraint=eastwest;whiteSpace=wrap;html=1;" parent="fLMmhs6oxU9pIg5j37gX-112" vertex="1">
          <mxGeometry y="60" width="390" height="32" as="geometry" />
        </mxCell>
        <mxCell id="fLMmhs6oxU9pIg5j37gX-118" value="+ login(req: Request, res: Response): Promise&amp;lt;any&amp;gt;" style="text;strokeColor=none;fillColor=none;align=left;verticalAlign=top;spacingLeft=4;spacingRight=4;overflow=hidden;rotatable=0;points=[[0,0.5],[1,0.5]];portConstraint=eastwest;whiteSpace=wrap;html=1;" parent="fLMmhs6oxU9pIg5j37gX-112" vertex="1">
          <mxGeometry y="92" width="390" height="32" as="geometry" />
        </mxCell>
        <mxCell id="fLMmhs6oxU9pIg5j37gX-119" value="+ register(req: Request, res: Response): Promise&amp;lt;any&amp;gt;" style="text;strokeColor=none;fillColor=none;align=left;verticalAlign=top;spacingLeft=4;spacingRight=4;overflow=hidden;rotatable=0;points=[[0,0.5],[1,0.5]];portConstraint=eastwest;whiteSpace=wrap;html=1;" parent="fLMmhs6oxU9pIg5j37gX-112" vertex="1">
          <mxGeometry y="124" width="390" height="32" as="geometry" />
        </mxCell>
        <mxCell id="fLMmhs6oxU9pIg5j37gX-120" value="+ findAll(req: Request, res: Response): Promise&amp;lt;any&amp;gt;" style="text;strokeColor=none;fillColor=none;align=left;verticalAlign=top;spacingLeft=4;spacingRight=4;overflow=hidden;rotatable=0;points=[[0,0.5],[1,0.5]];portConstraint=eastwest;whiteSpace=wrap;html=1;" parent="fLMmhs6oxU9pIg5j37gX-112" vertex="1">
          <mxGeometry y="156" width="390" height="32" as="geometry" />
        </mxCell>
        <mxCell id="fLMmhs6oxU9pIg5j37gX-147" value="ProductController" style="swimlane;fontStyle=1;align=center;verticalAlign=top;childLayout=stackLayout;horizontal=1;startSize=26;horizontalStack=0;resizeParent=1;resizeParentMax=0;resizeLast=0;collapsible=1;marginBottom=0;whiteSpace=wrap;html=1;" parent="fLMmhs6oxU9pIg5j37gX-111" vertex="1">
          <mxGeometry x="460" y="70" width="510" height="220" as="geometry" />
        </mxCell>
        <mxCell id="fLMmhs6oxU9pIg5j37gX-148" value="+ productService: ProductService" style="text;strokeColor=none;fillColor=none;align=left;verticalAlign=top;spacingLeft=4;spacingRight=4;overflow=hidden;rotatable=0;points=[[0,0.5],[1,0.5]];portConstraint=eastwest;whiteSpace=wrap;html=1;" parent="fLMmhs6oxU9pIg5j37gX-147" vertex="1">
          <mxGeometry y="26" width="510" height="26" as="geometry" />
        </mxCell>
        <mxCell id="fLMmhs6oxU9pIg5j37gX-149" value="" style="line;strokeWidth=1;fillColor=none;align=left;verticalAlign=middle;spacingTop=-1;spacingLeft=3;spacingRight=3;rotatable=0;labelPosition=right;points=[];portConstraint=eastwest;strokeColor=inherit;" parent="fLMmhs6oxU9pIg5j37gX-147" vertex="1">
          <mxGeometry y="52" width="510" height="8" as="geometry" />
        </mxCell>
        <mxCell id="fLMmhs6oxU9pIg5j37gX-150" value="+ ProductController(productService): this" style="text;strokeColor=none;fillColor=none;align=left;verticalAlign=top;spacingLeft=4;spacingRight=4;overflow=hidden;rotatable=0;points=[[0,0.5],[1,0.5]];portConstraint=eastwest;whiteSpace=wrap;html=1;" parent="fLMmhs6oxU9pIg5j37gX-147" vertex="1">
          <mxGeometry y="60" width="510" height="32" as="geometry" />
        </mxCell>
        <mxCell id="fLMmhs6oxU9pIg5j37gX-151" value="+ findById(req: Request, res: Response): Promise&amp;lt;any&amp;gt;" style="text;strokeColor=none;fillColor=none;align=left;verticalAlign=top;spacingLeft=4;spacingRight=4;overflow=hidden;rotatable=0;points=[[0,0.5],[1,0.5]];portConstraint=eastwest;whiteSpace=wrap;html=1;" parent="fLMmhs6oxU9pIg5j37gX-147" vertex="1">
          <mxGeometry y="92" width="510" height="32" as="geometry" />
        </mxCell>
        <mxCell id="fLMmhs6oxU9pIg5j37gX-152" value="+ register(req: Request, res: Response): Promise&amp;lt;any&amp;gt;" style="text;strokeColor=none;fillColor=none;align=left;verticalAlign=top;spacingLeft=4;spacingRight=4;overflow=hidden;rotatable=0;points=[[0,0.5],[1,0.5]];portConstraint=eastwest;whiteSpace=wrap;html=1;" parent="fLMmhs6oxU9pIg5j37gX-147" vertex="1">
          <mxGeometry y="124" width="510" height="32" as="geometry" />
        </mxCell>
        <mxCell id="fLMmhs6oxU9pIg5j37gX-153" value="+ update(req: Request, res: Response): Promise&amp;lt;any&amp;gt;" style="text;strokeColor=none;fillColor=none;align=left;verticalAlign=top;spacingLeft=4;spacingRight=4;overflow=hidden;rotatable=0;points=[[0,0.5],[1,0.5]];portConstraint=eastwest;whiteSpace=wrap;html=1;" parent="fLMmhs6oxU9pIg5j37gX-147" vertex="1">
          <mxGeometry y="156" width="510" height="32" as="geometry" />
        </mxCell>
        <mxCell id="fLMmhs6oxU9pIg5j37gX-172" value="+ findAll(req: Request, res: Response): Promise&amp;lt;any&amp;gt;" style="text;strokeColor=none;fillColor=none;align=left;verticalAlign=top;spacingLeft=4;spacingRight=4;overflow=hidden;rotatable=0;points=[[0,0.5],[1,0.5]];portConstraint=eastwest;whiteSpace=wrap;html=1;" parent="fLMmhs6oxU9pIg5j37gX-147" vertex="1">
          <mxGeometry y="188" width="510" height="32" as="geometry" />
        </mxCell>
        <mxCell id="fLMmhs6oxU9pIg5j37gX-185" value="DepositController" style="swimlane;fontStyle=1;align=center;verticalAlign=top;childLayout=stackLayout;horizontal=1;startSize=26;horizontalStack=0;resizeParent=1;resizeParentMax=0;resizeLast=0;collapsible=1;marginBottom=0;whiteSpace=wrap;html=1;" parent="fLMmhs6oxU9pIg5j37gX-111" vertex="1">
          <mxGeometry x="1015" y="70" width="510" height="220" as="geometry" />
        </mxCell>
        <mxCell id="fLMmhs6oxU9pIg5j37gX-186" value="+ depositService: DepositService" style="text;strokeColor=none;fillColor=none;align=left;verticalAlign=top;spacingLeft=4;spacingRight=4;overflow=hidden;rotatable=0;points=[[0,0.5],[1,0.5]];portConstraint=eastwest;whiteSpace=wrap;html=1;" parent="fLMmhs6oxU9pIg5j37gX-185" vertex="1">
          <mxGeometry y="26" width="510" height="26" as="geometry" />
        </mxCell>
        <mxCell id="fLMmhs6oxU9pIg5j37gX-187" value="" style="line;strokeWidth=1;fillColor=none;align=left;verticalAlign=middle;spacingTop=-1;spacingLeft=3;spacingRight=3;rotatable=0;labelPosition=right;points=[];portConstraint=eastwest;strokeColor=inherit;" parent="fLMmhs6oxU9pIg5j37gX-185" vertex="1">
          <mxGeometry y="52" width="510" height="8" as="geometry" />
        </mxCell>
        <mxCell id="fLMmhs6oxU9pIg5j37gX-188" value="+ DepositController(depositService): this" style="text;strokeColor=none;fillColor=none;align=left;verticalAlign=top;spacingLeft=4;spacingRight=4;overflow=hidden;rotatable=0;points=[[0,0.5],[1,0.5]];portConstraint=eastwest;whiteSpace=wrap;html=1;" parent="fLMmhs6oxU9pIg5j37gX-185" vertex="1">
          <mxGeometry y="60" width="510" height="32" as="geometry" />
        </mxCell>
        <mxCell id="fLMmhs6oxU9pIg5j37gX-189" value="+ findById(req: Request, res: Response): Promise&amp;lt;any&amp;gt;" style="text;strokeColor=none;fillColor=none;align=left;verticalAlign=top;spacingLeft=4;spacingRight=4;overflow=hidden;rotatable=0;points=[[0,0.5],[1,0.5]];portConstraint=eastwest;whiteSpace=wrap;html=1;" parent="fLMmhs6oxU9pIg5j37gX-185" vertex="1">
          <mxGeometry y="92" width="510" height="32" as="geometry" />
        </mxCell>
        <mxCell id="fLMmhs6oxU9pIg5j37gX-190" value="+ create(req: Request, res: Response): Promise&amp;lt;any&amp;gt;" style="text;strokeColor=none;fillColor=none;align=left;verticalAlign=top;spacingLeft=4;spacingRight=4;overflow=hidden;rotatable=0;points=[[0,0.5],[1,0.5]];portConstraint=eastwest;whiteSpace=wrap;html=1;" parent="fLMmhs6oxU9pIg5j37gX-185" vertex="1">
          <mxGeometry y="124" width="510" height="32" as="geometry" />
        </mxCell>
        <mxCell id="fLMmhs6oxU9pIg5j37gX-191" value="+ update(req: Request, res: Response): Promise&amp;lt;any&amp;gt;" style="text;strokeColor=none;fillColor=none;align=left;verticalAlign=top;spacingLeft=4;spacingRight=4;overflow=hidden;rotatable=0;points=[[0,0.5],[1,0.5]];portConstraint=eastwest;whiteSpace=wrap;html=1;" parent="fLMmhs6oxU9pIg5j37gX-185" vertex="1">
          <mxGeometry y="156" width="510" height="32" as="geometry" />
        </mxCell>
        <mxCell id="fLMmhs6oxU9pIg5j37gX-192" value="+ findAll(req: Request, res: Response): Promise&amp;lt;any&amp;gt;" style="text;strokeColor=none;fillColor=none;align=left;verticalAlign=top;spacingLeft=4;spacingRight=4;overflow=hidden;rotatable=0;points=[[0,0.5],[1,0.5]];portConstraint=eastwest;whiteSpace=wrap;html=1;" parent="fLMmhs6oxU9pIg5j37gX-185" vertex="1">
          <mxGeometry y="188" width="510" height="32" as="geometry" />
        </mxCell>
        <mxCell id="YwlA8bpm41kjBRWY-kJj-5" value="ProductMovementController" style="swimlane;fontStyle=1;align=center;verticalAlign=top;childLayout=stackLayout;horizontal=1;startSize=26;horizontalStack=0;resizeParent=1;resizeParentMax=0;resizeLast=0;collapsible=1;marginBottom=0;whiteSpace=wrap;html=1;" parent="fLMmhs6oxU9pIg5j37gX-111" vertex="1">
          <mxGeometry x="1590" y="70" width="510" height="284" as="geometry" />
        </mxCell>
        <mxCell id="YwlA8bpm41kjBRWY-kJj-6" value="+ productMovementService: ProductMovementService" style="text;strokeColor=none;fillColor=none;align=left;verticalAlign=top;spacingLeft=4;spacingRight=4;overflow=hidden;rotatable=0;points=[[0,0.5],[1,0.5]];portConstraint=eastwest;whiteSpace=wrap;html=1;" parent="YwlA8bpm41kjBRWY-kJj-5" vertex="1">
          <mxGeometry y="26" width="510" height="26" as="geometry" />
        </mxCell>
        <mxCell id="YwlA8bpm41kjBRWY-kJj-8" value="" style="line;strokeWidth=1;fillColor=none;align=left;verticalAlign=middle;spacingTop=-1;spacingLeft=3;spacingRight=3;rotatable=0;labelPosition=right;points=[];portConstraint=eastwest;strokeColor=inherit;" parent="YwlA8bpm41kjBRWY-kJj-5" vertex="1">
          <mxGeometry y="52" width="510" height="8" as="geometry" />
        </mxCell>
        <mxCell id="YwlA8bpm41kjBRWY-kJj-9" value="+ ProductMovementController(productMovementService): this" style="text;strokeColor=none;fillColor=none;align=left;verticalAlign=top;spacingLeft=4;spacingRight=4;overflow=hidden;rotatable=0;points=[[0,0.5],[1,0.5]];portConstraint=eastwest;whiteSpace=wrap;html=1;" parent="YwlA8bpm41kjBRWY-kJj-5" vertex="1">
          <mxGeometry y="60" width="510" height="32" as="geometry" />
        </mxCell>
        <mxCell id="YwlA8bpm41kjBRWY-kJj-10" value="+ create(req: Request, res: Response): Promise&amp;lt;any&amp;gt;" style="text;strokeColor=none;fillColor=none;align=left;verticalAlign=top;spacingLeft=4;spacingRight=4;overflow=hidden;rotatable=0;points=[[0,0.5],[1,0.5]];portConstraint=eastwest;whiteSpace=wrap;html=1;" parent="YwlA8bpm41kjBRWY-kJj-5" vertex="1">
          <mxGeometry y="92" width="510" height="32" as="geometry" />
        </mxCell>
        <mxCell id="YwlA8bpm41kjBRWY-kJj-11" value="+ findById(req: Request, res: Response): Promise&amp;lt;any&amp;gt;" style="text;strokeColor=none;fillColor=none;align=left;verticalAlign=top;spacingLeft=4;spacingRight=4;overflow=hidden;rotatable=0;points=[[0,0.5],[1,0.5]];portConstraint=eastwest;whiteSpace=wrap;html=1;" parent="YwlA8bpm41kjBRWY-kJj-5" vertex="1">
          <mxGeometry y="124" width="510" height="32" as="geometry" />
        </mxCell>
        <mxCell id="YwlA8bpm41kjBRWY-kJj-12" value="+ findAll(req: Request, res: Response): Promise&amp;lt;any&amp;gt;" style="text;strokeColor=none;fillColor=none;align=left;verticalAlign=top;spacingLeft=4;spacingRight=4;overflow=hidden;rotatable=0;points=[[0,0.5],[1,0.5]];portConstraint=eastwest;whiteSpace=wrap;html=1;" parent="YwlA8bpm41kjBRWY-kJj-5" vertex="1">
          <mxGeometry y="156" width="510" height="32" as="geometry" />
        </mxCell>
        <mxCell id="YwlA8bpm41kjBRWY-kJj-13" value="+ findByProductId(req: Request, res: Response): Promise&amp;lt;any&amp;gt;&lt;div&gt;&lt;br&gt;&lt;/div&gt;" style="text;strokeColor=none;fillColor=none;align=left;verticalAlign=top;spacingLeft=4;spacingRight=4;overflow=hidden;rotatable=0;points=[[0,0.5],[1,0.5]];portConstraint=eastwest;whiteSpace=wrap;html=1;" parent="YwlA8bpm41kjBRWY-kJj-5" vertex="1">
          <mxGeometry y="188" width="510" height="32" as="geometry" />
        </mxCell>
        <mxCell id="YwlA8bpm41kjBRWY-kJj-14" value="+ findByDepositId(req: Request, res: Response): Promise&amp;lt;any&amp;gt;" style="text;strokeColor=none;fillColor=none;align=left;verticalAlign=top;spacingLeft=4;spacingRight=4;overflow=hidden;rotatable=0;points=[[0,0.5],[1,0.5]];portConstraint=eastwest;whiteSpace=wrap;html=1;" parent="YwlA8bpm41kjBRWY-kJj-5" vertex="1">
          <mxGeometry y="220" width="510" height="32" as="geometry" />
        </mxCell>
        <mxCell id="YwlA8bpm41kjBRWY-kJj-15" value="+ findByDateInterval(req: Request, res: Response): Promise&amp;lt;any&amp;gt;" style="text;strokeColor=none;fillColor=none;align=left;verticalAlign=top;spacingLeft=4;spacingRight=4;overflow=hidden;rotatable=0;points=[[0,0.5],[1,0.5]];portConstraint=eastwest;whiteSpace=wrap;html=1;" parent="YwlA8bpm41kjBRWY-kJj-5" vertex="1">
          <mxGeometry y="252" width="510" height="32" as="geometry" />
        </mxCell>
        <mxCell id="VpDtDvV46lMGRpjxMcqZ-59" value="CostCenterController" style="swimlane;fontStyle=1;align=center;verticalAlign=top;childLayout=stackLayout;horizontal=1;startSize=26;horizontalStack=0;resizeParent=1;resizeParentMax=0;resizeLast=0;collapsible=1;marginBottom=0;whiteSpace=wrap;html=1;" parent="fLMmhs6oxU9pIg5j37gX-111" vertex="1">
          <mxGeometry x="2740" y="86" width="390" height="252" as="geometry" />
        </mxCell>
        <mxCell id="VpDtDvV46lMGRpjxMcqZ-60" value="+ costCenterService: CostCenterService" style="text;strokeColor=none;fillColor=none;align=left;verticalAlign=top;spacingLeft=4;spacingRight=4;overflow=hidden;rotatable=0;points=[[0,0.5],[1,0.5]];portConstraint=eastwest;whiteSpace=wrap;html=1;" parent="VpDtDvV46lMGRpjxMcqZ-59" vertex="1">
          <mxGeometry y="26" width="390" height="26" as="geometry" />
        </mxCell>
        <mxCell id="VpDtDvV46lMGRpjxMcqZ-61" value="" style="line;strokeWidth=1;fillColor=none;align=left;verticalAlign=middle;spacingTop=-1;spacingLeft=3;spacingRight=3;rotatable=0;labelPosition=right;points=[];portConstraint=eastwest;strokeColor=inherit;" parent="VpDtDvV46lMGRpjxMcqZ-59" vertex="1">
          <mxGeometry y="52" width="390" height="8" as="geometry" />
        </mxCell>
        <mxCell id="VpDtDvV46lMGRpjxMcqZ-62" value="+ CostCenterController(costCenterService): this" style="text;strokeColor=none;fillColor=none;align=left;verticalAlign=top;spacingLeft=4;spacingRight=4;overflow=hidden;rotatable=0;points=[[0,0.5],[1,0.5]];portConstraint=eastwest;whiteSpace=wrap;html=1;" parent="VpDtDvV46lMGRpjxMcqZ-59" vertex="1">
          <mxGeometry y="60" width="390" height="32" as="geometry" />
        </mxCell>
        <mxCell id="VpDtDvV46lMGRpjxMcqZ-63" value="+ findById(req: Request, res: Response): Promise&amp;lt;any&amp;gt;" style="text;strokeColor=none;fillColor=none;align=left;verticalAlign=top;spacingLeft=4;spacingRight=4;overflow=hidden;rotatable=0;points=[[0,0.5],[1,0.5]];portConstraint=eastwest;whiteSpace=wrap;html=1;" parent="VpDtDvV46lMGRpjxMcqZ-59" vertex="1">
          <mxGeometry y="92" width="390" height="32" as="geometry" />
        </mxCell>
        <mxCell id="VpDtDvV46lMGRpjxMcqZ-64" value="+ findAll(req: Request, res: Response): Promise&amp;lt;any&amp;gt;" style="text;strokeColor=none;fillColor=none;align=left;verticalAlign=top;spacingLeft=4;spacingRight=4;overflow=hidden;rotatable=0;points=[[0,0.5],[1,0.5]];portConstraint=eastwest;whiteSpace=wrap;html=1;" parent="VpDtDvV46lMGRpjxMcqZ-59" vertex="1">
          <mxGeometry y="124" width="390" height="32" as="geometry" />
        </mxCell>
        <mxCell id="VpDtDvV46lMGRpjxMcqZ-65" value="+ create(req: Request, res: Response): Promise&amp;lt;any&amp;gt;" style="text;strokeColor=none;fillColor=none;align=left;verticalAlign=top;spacingLeft=4;spacingRight=4;overflow=hidden;rotatable=0;points=[[0,0.5],[1,0.5]];portConstraint=eastwest;whiteSpace=wrap;html=1;" parent="VpDtDvV46lMGRpjxMcqZ-59" vertex="1">
          <mxGeometry y="156" width="390" height="32" as="geometry" />
        </mxCell>
        <mxCell id="VpDtDvV46lMGRpjxMcqZ-66" value="+ update(req: Request, res: Response): Promise&amp;lt;any&amp;gt;" style="text;strokeColor=none;fillColor=none;align=left;verticalAlign=top;spacingLeft=4;spacingRight=4;overflow=hidden;rotatable=0;points=[[0,0.5],[1,0.5]];portConstraint=eastwest;whiteSpace=wrap;html=1;" parent="VpDtDvV46lMGRpjxMcqZ-59" vertex="1">
          <mxGeometry y="188" width="390" height="32" as="geometry" />
        </mxCell>
        <mxCell id="VpDtDvV46lMGRpjxMcqZ-67" value="+ delete(req: Request, res: Response): Promise&amp;lt;any&amp;gt;" style="text;strokeColor=none;fillColor=none;align=left;verticalAlign=top;spacingLeft=4;spacingRight=4;overflow=hidden;rotatable=0;points=[[0,0.5],[1,0.5]];portConstraint=eastwest;whiteSpace=wrap;html=1;" parent="VpDtDvV46lMGRpjxMcqZ-59" vertex="1">
          <mxGeometry y="220" width="390" height="32" as="geometry" />
        </mxCell>
        <mxCell id="VpDtDvV46lMGRpjxMcqZ-49" value="CostCenterService" style="swimlane;fontStyle=1;align=center;verticalAlign=top;childLayout=stackLayout;horizontal=1;startSize=26;horizontalStack=0;resizeParent=1;resizeParentMax=0;resizeLast=0;collapsible=1;marginBottom=0;whiteSpace=wrap;html=1;" parent="fLMmhs6oxU9pIg5j37gX-111" vertex="1">
          <mxGeometry x="2740" y="-433" width="390" height="278" as="geometry" />
        </mxCell>
        <mxCell id="VpDtDvV46lMGRpjxMcqZ-50" value="+ costCenterModel: CostCenterModel" style="text;strokeColor=none;fillColor=none;align=left;verticalAlign=top;spacingLeft=4;spacingRight=4;overflow=hidden;rotatable=0;points=[[0,0.5],[1,0.5]];portConstraint=eastwest;whiteSpace=wrap;html=1;" parent="VpDtDvV46lMGRpjxMcqZ-49" vertex="1">
          <mxGeometry y="26" width="390" height="26" as="geometry" />
        </mxCell>
        <mxCell id="VpDtDvV46lMGRpjxMcqZ-51" value="+ paginatedSearcher: PaginatedSearcher" style="text;strokeColor=none;fillColor=none;align=left;verticalAlign=top;spacingLeft=4;spacingRight=4;overflow=hidden;rotatable=0;points=[[0,0.5],[1,0.5]];portConstraint=eastwest;whiteSpace=wrap;html=1;" parent="VpDtDvV46lMGRpjxMcqZ-49" vertex="1">
          <mxGeometry y="52" width="390" height="26" as="geometry" />
        </mxCell>
        <mxCell id="VpDtDvV46lMGRpjxMcqZ-52" value="" style="line;strokeWidth=1;fillColor=none;align=left;verticalAlign=middle;spacingTop=-1;spacingLeft=3;spacingRight=3;rotatable=0;labelPosition=right;points=[];portConstraint=eastwest;strokeColor=inherit;" parent="VpDtDvV46lMGRpjxMcqZ-49" vertex="1">
          <mxGeometry y="78" width="390" height="8" as="geometry" />
        </mxCell>
        <mxCell id="VpDtDvV46lMGRpjxMcqZ-53" value="+ CostCenterService(costCenterModel, paginatedSearcher): this" style="text;strokeColor=none;fillColor=none;align=left;verticalAlign=top;spacingLeft=4;spacingRight=4;overflow=hidden;rotatable=0;points=[[0,0.5],[1,0.5]];portConstraint=eastwest;whiteSpace=wrap;html=1;" parent="VpDtDvV46lMGRpjxMcqZ-49" vertex="1">
          <mxGeometry y="86" width="390" height="32" as="geometry" />
        </mxCell>
        <mxCell id="VpDtDvV46lMGRpjxMcqZ-54" value="+ findById(id: number): Promise&amp;lt;Model | null&amp;gt;" style="text;strokeColor=none;fillColor=none;align=left;verticalAlign=top;spacingLeft=4;spacingRight=4;overflow=hidden;rotatable=0;points=[[0,0.5],[1,0.5]];portConstraint=eastwest;whiteSpace=wrap;html=1;" parent="VpDtDvV46lMGRpjxMcqZ-49" vertex="1">
          <mxGeometry y="118" width="390" height="32" as="geometry" />
        </mxCell>
        <mxCell id="VpDtDvV46lMGRpjxMcqZ-55" value="+ findAll(page: number, size: number): Promise&amp;lt;PaginatedResource&amp;gt;" style="text;strokeColor=none;fillColor=none;align=left;verticalAlign=top;spacingLeft=4;spacingRight=4;overflow=hidden;rotatable=0;points=[[0,0.5],[1,0.5]];portConstraint=eastwest;whiteSpace=wrap;html=1;" parent="VpDtDvV46lMGRpjxMcqZ-49" vertex="1">
          <mxGeometry y="150" width="390" height="32" as="geometry" />
        </mxCell>
        <mxCell id="VpDtDvV46lMGRpjxMcqZ-56" value="+ create(name: String, code: String): Promise&amp;lt;Model&amp;gt;" style="text;strokeColor=none;fillColor=none;align=left;verticalAlign=top;spacingLeft=4;spacingRight=4;overflow=hidden;rotatable=0;points=[[0,0.5],[1,0.5]];portConstraint=eastwest;whiteSpace=wrap;html=1;" parent="VpDtDvV46lMGRpjxMcqZ-49" vertex="1">
          <mxGeometry y="182" width="390" height="32" as="geometry" />
        </mxCell>
        <mxCell id="VpDtDvV46lMGRpjxMcqZ-57" value="+ update(id: String, name: String, code: String): Promise&amp;lt;Model&amp;gt;" style="text;strokeColor=none;fillColor=none;align=left;verticalAlign=top;spacingLeft=4;spacingRight=4;overflow=hidden;rotatable=0;points=[[0,0.5],[1,0.5]];portConstraint=eastwest;whiteSpace=wrap;html=1;" parent="VpDtDvV46lMGRpjxMcqZ-49" vertex="1">
          <mxGeometry y="214" width="390" height="32" as="geometry" />
        </mxCell>
        <mxCell id="VpDtDvV46lMGRpjxMcqZ-58" value="+ delete(id: String): Promise&amp;lt;Model&amp;gt;" style="text;strokeColor=none;fillColor=none;align=left;verticalAlign=top;spacingLeft=4;spacingRight=4;overflow=hidden;rotatable=0;points=[[0,0.5],[1,0.5]];portConstraint=eastwest;whiteSpace=wrap;html=1;" parent="VpDtDvV46lMGRpjxMcqZ-49" vertex="1">
          <mxGeometry y="246" width="390" height="32" as="geometry" />
        </mxCell>
        <mxCell id="VpDtDvV46lMGRpjxMcqZ-69" style="edgeStyle=orthogonalEdgeStyle;rounded=0;orthogonalLoop=1;jettySize=auto;html=1;entryX=0.5;entryY=0;entryDx=0;entryDy=0;" parent="fLMmhs6oxU9pIg5j37gX-111" source="VpDtDvV46lMGRpjxMcqZ-49" target="VpDtDvV46lMGRpjxMcqZ-59" edge="1">
          <mxGeometry relative="1" as="geometry" />
        </mxCell>
        <mxCell id="VpDtDvV46lMGRpjxMcqZ-45" value="CostCenterModel" style="swimlane;fontStyle=0;childLayout=stackLayout;horizontal=1;startSize=26;fillColor=none;horizontalStack=0;resizeParent=1;resizeParentMax=0;resizeLast=0;collapsible=1;marginBottom=0;whiteSpace=wrap;html=1;" parent="fLMmhs6oxU9pIg5j37gX-111" vertex="1">
          <mxGeometry x="2815" y="-787" width="240" height="104" as="geometry" />
        </mxCell>
        <mxCell id="VpDtDvV46lMGRpjxMcqZ-46" value="+ id: number" style="text;strokeColor=none;fillColor=none;align=left;verticalAlign=top;spacingLeft=4;spacingRight=4;overflow=hidden;rotatable=0;points=[[0,0.5],[1,0.5]];portConstraint=eastwest;whiteSpace=wrap;html=1;" parent="VpDtDvV46lMGRpjxMcqZ-45" vertex="1">
          <mxGeometry y="26" width="240" height="26" as="geometry" />
        </mxCell>
        <mxCell id="VpDtDvV46lMGRpjxMcqZ-47" value="+ name: String" style="text;strokeColor=none;fillColor=none;align=left;verticalAlign=top;spacingLeft=4;spacingRight=4;overflow=hidden;rotatable=0;points=[[0,0.5],[1,0.5]];portConstraint=eastwest;whiteSpace=wrap;html=1;" parent="VpDtDvV46lMGRpjxMcqZ-45" vertex="1">
          <mxGeometry y="52" width="240" height="26" as="geometry" />
        </mxCell>
        <mxCell id="VpDtDvV46lMGRpjxMcqZ-48" value="+ code: String" style="text;strokeColor=none;fillColor=none;align=left;verticalAlign=top;spacingLeft=4;spacingRight=4;overflow=hidden;rotatable=0;points=[[0,0.5],[1,0.5]];portConstraint=eastwest;whiteSpace=wrap;html=1;" parent="VpDtDvV46lMGRpjxMcqZ-45" vertex="1">
          <mxGeometry y="78" width="240" height="26" as="geometry" />
        </mxCell>
        <mxCell id="VpDtDvV46lMGRpjxMcqZ-68" style="edgeStyle=orthogonalEdgeStyle;rounded=0;orthogonalLoop=1;jettySize=auto;html=1;" parent="fLMmhs6oxU9pIg5j37gX-111" source="VpDtDvV46lMGRpjxMcqZ-45" target="VpDtDvV46lMGRpjxMcqZ-49" edge="1">
          <mxGeometry relative="1" as="geometry" />
        </mxCell>
        <mxCell id="VpDtDvV46lMGRpjxMcqZ-90" value="QuotationController" style="swimlane;fontStyle=1;align=center;verticalAlign=top;childLayout=stackLayout;horizontal=1;startSize=26;horizontalStack=0;resizeParent=1;resizeParentMax=0;resizeLast=0;collapsible=1;marginBottom=0;whiteSpace=wrap;html=1;" parent="fLMmhs6oxU9pIg5j37gX-111" vertex="1">
          <mxGeometry x="3260" y="73" width="390" height="252" as="geometry" />
        </mxCell>
        <mxCell id="VpDtDvV46lMGRpjxMcqZ-91" value="+ quotationService: QuotationService" style="text;strokeColor=none;fillColor=none;align=left;verticalAlign=top;spacingLeft=4;spacingRight=4;overflow=hidden;rotatable=0;points=[[0,0.5],[1,0.5]];portConstraint=eastwest;whiteSpace=wrap;html=1;" parent="VpDtDvV46lMGRpjxMcqZ-90" vertex="1">
          <mxGeometry y="26" width="390" height="26" as="geometry" />
        </mxCell>
        <mxCell id="VpDtDvV46lMGRpjxMcqZ-92" value="" style="line;strokeWidth=1;fillColor=none;align=left;verticalAlign=middle;spacingTop=-1;spacingLeft=3;spacingRight=3;rotatable=0;labelPosition=right;points=[];portConstraint=eastwest;strokeColor=inherit;" parent="VpDtDvV46lMGRpjxMcqZ-90" vertex="1">
          <mxGeometry y="52" width="390" height="8" as="geometry" />
        </mxCell>
        <mxCell id="VpDtDvV46lMGRpjxMcqZ-93" value="+ QuotationController(quotationService): this" style="text;strokeColor=none;fillColor=none;align=left;verticalAlign=top;spacingLeft=4;spacingRight=4;overflow=hidden;rotatable=0;points=[[0,0.5],[1,0.5]];portConstraint=eastwest;whiteSpace=wrap;html=1;" parent="VpDtDvV46lMGRpjxMcqZ-90" vertex="1">
          <mxGeometry y="60" width="390" height="32" as="geometry" />
        </mxCell>
        <mxCell id="VpDtDvV46lMGRpjxMcqZ-94" value="+ findById(req: Request, res: Response): Promise&amp;lt;any&amp;gt;" style="text;strokeColor=none;fillColor=none;align=left;verticalAlign=top;spacingLeft=4;spacingRight=4;overflow=hidden;rotatable=0;points=[[0,0.5],[1,0.5]];portConstraint=eastwest;whiteSpace=wrap;html=1;" parent="VpDtDvV46lMGRpjxMcqZ-90" vertex="1">
          <mxGeometry y="92" width="390" height="32" as="geometry" />
        </mxCell>
        <mxCell id="VpDtDvV46lMGRpjxMcqZ-95" value="+ findAll(req: Request, res: Response): Promise&amp;lt;any&amp;gt;" style="text;strokeColor=none;fillColor=none;align=left;verticalAlign=top;spacingLeft=4;spacingRight=4;overflow=hidden;rotatable=0;points=[[0,0.5],[1,0.5]];portConstraint=eastwest;whiteSpace=wrap;html=1;" parent="VpDtDvV46lMGRpjxMcqZ-90" vertex="1">
          <mxGeometry y="124" width="390" height="32" as="geometry" />
        </mxCell>
        <mxCell id="VpDtDvV46lMGRpjxMcqZ-96" value="+ create(req: Request, res: Response): Promise&amp;lt;any&amp;gt;" style="text;strokeColor=none;fillColor=none;align=left;verticalAlign=top;spacingLeft=4;spacingRight=4;overflow=hidden;rotatable=0;points=[[0,0.5],[1,0.5]];portConstraint=eastwest;whiteSpace=wrap;html=1;" parent="VpDtDvV46lMGRpjxMcqZ-90" vertex="1">
          <mxGeometry y="156" width="390" height="32" as="geometry" />
        </mxCell>
        <mxCell id="VpDtDvV46lMGRpjxMcqZ-97" value="+ update(req: Request, res: Response): Promise&amp;lt;any&amp;gt;" style="text;strokeColor=none;fillColor=none;align=left;verticalAlign=top;spacingLeft=4;spacingRight=4;overflow=hidden;rotatable=0;points=[[0,0.5],[1,0.5]];portConstraint=eastwest;whiteSpace=wrap;html=1;" parent="VpDtDvV46lMGRpjxMcqZ-90" vertex="1">
          <mxGeometry y="188" width="390" height="32" as="geometry" />
        </mxCell>
        <mxCell id="VpDtDvV46lMGRpjxMcqZ-98" value="+ delete(req: Request, res: Response): Promise&amp;lt;any&amp;gt;" style="text;strokeColor=none;fillColor=none;align=left;verticalAlign=top;spacingLeft=4;spacingRight=4;overflow=hidden;rotatable=0;points=[[0,0.5],[1,0.5]];portConstraint=eastwest;whiteSpace=wrap;html=1;" parent="VpDtDvV46lMGRpjxMcqZ-90" vertex="1">
          <mxGeometry y="220" width="390" height="32" as="geometry" />
        </mxCell>
        <mxCell id="TzwoGXROkYAPexnYqHCg-19" value="PurchaseController" style="swimlane;fontStyle=1;align=center;verticalAlign=top;childLayout=stackLayout;horizontal=1;startSize=26;horizontalStack=0;resizeParent=1;resizeParentMax=0;resizeLast=0;collapsible=1;marginBottom=0;whiteSpace=wrap;html=1;" vertex="1" parent="fLMmhs6oxU9pIg5j37gX-111">
          <mxGeometry x="3780" y="113" width="390" height="188" as="geometry" />
        </mxCell>
        <mxCell id="TzwoGXROkYAPexnYqHCg-20" value="+ purchaseService:&amp;nbsp;PurchaseService" style="text;strokeColor=none;fillColor=none;align=left;verticalAlign=top;spacingLeft=4;spacingRight=4;overflow=hidden;rotatable=0;points=[[0,0.5],[1,0.5]];portConstraint=eastwest;whiteSpace=wrap;html=1;" vertex="1" parent="TzwoGXROkYAPexnYqHCg-19">
          <mxGeometry y="26" width="390" height="26" as="geometry" />
        </mxCell>
        <mxCell id="TzwoGXROkYAPexnYqHCg-21" value="" style="line;strokeWidth=1;fillColor=none;align=left;verticalAlign=middle;spacingTop=-1;spacingLeft=3;spacingRight=3;rotatable=0;labelPosition=right;points=[];portConstraint=eastwest;strokeColor=inherit;" vertex="1" parent="TzwoGXROkYAPexnYqHCg-19">
          <mxGeometry y="52" width="390" height="8" as="geometry" />
        </mxCell>
        <mxCell id="TzwoGXROkYAPexnYqHCg-22" value="+&amp;nbsp;&lt;span style=&quot;text-align: center;&quot;&gt;PurchaseController&lt;/span&gt;(purchaseService): this" style="text;strokeColor=none;fillColor=none;align=left;verticalAlign=top;spacingLeft=4;spacingRight=4;overflow=hidden;rotatable=0;points=[[0,0.5],[1,0.5]];portConstraint=eastwest;whiteSpace=wrap;html=1;" vertex="1" parent="TzwoGXROkYAPexnYqHCg-19">
          <mxGeometry y="60" width="390" height="32" as="geometry" />
        </mxCell>
        <mxCell id="TzwoGXROkYAPexnYqHCg-23" value="+ findById(req: Request, res: Response): Promise&amp;lt;any&amp;gt;" style="text;strokeColor=none;fillColor=none;align=left;verticalAlign=top;spacingLeft=4;spacingRight=4;overflow=hidden;rotatable=0;points=[[0,0.5],[1,0.5]];portConstraint=eastwest;whiteSpace=wrap;html=1;" vertex="1" parent="TzwoGXROkYAPexnYqHCg-19">
          <mxGeometry y="92" width="390" height="32" as="geometry" />
        </mxCell>
        <mxCell id="TzwoGXROkYAPexnYqHCg-24" value="+ findAll(req: Request, res: Response): Promise&amp;lt;any&amp;gt;" style="text;strokeColor=none;fillColor=none;align=left;verticalAlign=top;spacingLeft=4;spacingRight=4;overflow=hidden;rotatable=0;points=[[0,0.5],[1,0.5]];portConstraint=eastwest;whiteSpace=wrap;html=1;" vertex="1" parent="TzwoGXROkYAPexnYqHCg-19">
          <mxGeometry y="124" width="390" height="32" as="geometry" />
        </mxCell>
        <mxCell id="TzwoGXROkYAPexnYqHCg-76" value="+ findByInvoice(req: Request, res: Response): Promise&amp;lt;any&amp;gt;" style="text;strokeColor=none;fillColor=none;align=left;verticalAlign=top;spacingLeft=4;spacingRight=4;overflow=hidden;rotatable=0;points=[[0,0.5],[1,0.5]];portConstraint=eastwest;whiteSpace=wrap;html=1;" vertex="1" parent="TzwoGXROkYAPexnYqHCg-19">
          <mxGeometry y="156" width="390" height="32" as="geometry" />
        </mxCell>
        <mxCell id="VpDtDvV46lMGRpjxMcqZ-23" value="DepartmentController" style="swimlane;fontStyle=1;align=center;verticalAlign=top;childLayout=stackLayout;horizontal=1;startSize=26;horizontalStack=0;resizeParent=1;resizeParentMax=0;resizeLast=0;collapsible=1;marginBottom=0;whiteSpace=wrap;html=1;" parent="fLMmhs6oxU9pIg5j37gX-111" vertex="1">
          <mxGeometry x="2240" y="86" width="390" height="252" as="geometry" />
        </mxCell>
        <mxCell id="VpDtDvV46lMGRpjxMcqZ-24" value="+ departmentService: DepartmentService" style="text;strokeColor=none;fillColor=none;align=left;verticalAlign=top;spacingLeft=4;spacingRight=4;overflow=hidden;rotatable=0;points=[[0,0.5],[1,0.5]];portConstraint=eastwest;whiteSpace=wrap;html=1;" parent="VpDtDvV46lMGRpjxMcqZ-23" vertex="1">
          <mxGeometry y="26" width="390" height="26" as="geometry" />
        </mxCell>
        <mxCell id="VpDtDvV46lMGRpjxMcqZ-26" value="" style="line;strokeWidth=1;fillColor=none;align=left;verticalAlign=middle;spacingTop=-1;spacingLeft=3;spacingRight=3;rotatable=0;labelPosition=right;points=[];portConstraint=eastwest;strokeColor=inherit;" parent="VpDtDvV46lMGRpjxMcqZ-23" vertex="1">
          <mxGeometry y="52" width="390" height="8" as="geometry" />
        </mxCell>
        <mxCell id="VpDtDvV46lMGRpjxMcqZ-27" value="+ DepartmentController(departmentService): this" style="text;strokeColor=none;fillColor=none;align=left;verticalAlign=top;spacingLeft=4;spacingRight=4;overflow=hidden;rotatable=0;points=[[0,0.5],[1,0.5]];portConstraint=eastwest;whiteSpace=wrap;html=1;" parent="VpDtDvV46lMGRpjxMcqZ-23" vertex="1">
          <mxGeometry y="60" width="390" height="32" as="geometry" />
        </mxCell>
        <mxCell id="VpDtDvV46lMGRpjxMcqZ-28" value="+ findById(req: Request, res: Response): Promise&amp;lt;any&amp;gt;" style="text;strokeColor=none;fillColor=none;align=left;verticalAlign=top;spacingLeft=4;spacingRight=4;overflow=hidden;rotatable=0;points=[[0,0.5],[1,0.5]];portConstraint=eastwest;whiteSpace=wrap;html=1;" parent="VpDtDvV46lMGRpjxMcqZ-23" vertex="1">
          <mxGeometry y="92" width="390" height="32" as="geometry" />
        </mxCell>
        <mxCell id="VpDtDvV46lMGRpjxMcqZ-29" value="+ findAll(req: Request, res: Response): Promise&amp;lt;any&amp;gt;" style="text;strokeColor=none;fillColor=none;align=left;verticalAlign=top;spacingLeft=4;spacingRight=4;overflow=hidden;rotatable=0;points=[[0,0.5],[1,0.5]];portConstraint=eastwest;whiteSpace=wrap;html=1;" parent="VpDtDvV46lMGRpjxMcqZ-23" vertex="1">
          <mxGeometry y="124" width="390" height="32" as="geometry" />
        </mxCell>
        <mxCell id="VpDtDvV46lMGRpjxMcqZ-30" value="+ create(req: Request, res: Response): Promise&amp;lt;any&amp;gt;" style="text;strokeColor=none;fillColor=none;align=left;verticalAlign=top;spacingLeft=4;spacingRight=4;overflow=hidden;rotatable=0;points=[[0,0.5],[1,0.5]];portConstraint=eastwest;whiteSpace=wrap;html=1;" parent="VpDtDvV46lMGRpjxMcqZ-23" vertex="1">
          <mxGeometry y="156" width="390" height="32" as="geometry" />
        </mxCell>
        <mxCell id="VpDtDvV46lMGRpjxMcqZ-31" value="+ update(req: Request, res: Response): Promise&amp;lt;any&amp;gt;" style="text;strokeColor=none;fillColor=none;align=left;verticalAlign=top;spacingLeft=4;spacingRight=4;overflow=hidden;rotatable=0;points=[[0,0.5],[1,0.5]];portConstraint=eastwest;whiteSpace=wrap;html=1;" parent="VpDtDvV46lMGRpjxMcqZ-23" vertex="1">
          <mxGeometry y="188" width="390" height="32" as="geometry" />
        </mxCell>
        <mxCell id="VpDtDvV46lMGRpjxMcqZ-32" value="+ delete(req: Request, res: Response): Promise&amp;lt;any&amp;gt;" style="text;strokeColor=none;fillColor=none;align=left;verticalAlign=top;spacingLeft=4;spacingRight=4;overflow=hidden;rotatable=0;points=[[0,0.5],[1,0.5]];portConstraint=eastwest;whiteSpace=wrap;html=1;" parent="VpDtDvV46lMGRpjxMcqZ-23" vertex="1">
          <mxGeometry y="220" width="390" height="32" as="geometry" />
        </mxCell>
        <mxCell id="TzwoGXROkYAPexnYqHCg-4" value="PurchaseRequestController" style="swimlane;fontStyle=1;align=center;verticalAlign=top;childLayout=stackLayout;horizontal=1;startSize=26;horizontalStack=0;resizeParent=1;resizeParentMax=0;resizeLast=0;collapsible=1;marginBottom=0;whiteSpace=wrap;html=1;" vertex="1" parent="fLMmhs6oxU9pIg5j37gX-111">
          <mxGeometry x="4370" y="118" width="390" height="188" as="geometry" />
        </mxCell>
        <mxCell id="TzwoGXROkYAPexnYqHCg-5" value="+ purchaseRequestService:&amp;nbsp;&lt;span style=&quot;text-align: center;&quot;&gt;PurchaseRequestService&lt;/span&gt;" style="text;strokeColor=none;fillColor=none;align=left;verticalAlign=top;spacingLeft=4;spacingRight=4;overflow=hidden;rotatable=0;points=[[0,0.5],[1,0.5]];portConstraint=eastwest;whiteSpace=wrap;html=1;" vertex="1" parent="TzwoGXROkYAPexnYqHCg-4">
          <mxGeometry y="26" width="390" height="26" as="geometry" />
        </mxCell>
        <mxCell id="TzwoGXROkYAPexnYqHCg-6" value="" style="line;strokeWidth=1;fillColor=none;align=left;verticalAlign=middle;spacingTop=-1;spacingLeft=3;spacingRight=3;rotatable=0;labelPosition=right;points=[];portConstraint=eastwest;strokeColor=inherit;" vertex="1" parent="TzwoGXROkYAPexnYqHCg-4">
          <mxGeometry y="52" width="390" height="8" as="geometry" />
        </mxCell>
        <mxCell id="TzwoGXROkYAPexnYqHCg-7" value="+&amp;nbsp;&lt;span style=&quot;text-align: center;&quot;&gt;PurchaseRequest&lt;/span&gt;(purchaseRequestService): this" style="text;strokeColor=none;fillColor=none;align=left;verticalAlign=top;spacingLeft=4;spacingRight=4;overflow=hidden;rotatable=0;points=[[0,0.5],[1,0.5]];portConstraint=eastwest;whiteSpace=wrap;html=1;" vertex="1" parent="TzwoGXROkYAPexnYqHCg-4">
          <mxGeometry y="60" width="390" height="32" as="geometry" />
        </mxCell>
        <mxCell id="TzwoGXROkYAPexnYqHCg-8" value="+ findById(req: Request, res: Response): Promise&amp;lt;any&amp;gt;" style="text;strokeColor=none;fillColor=none;align=left;verticalAlign=top;spacingLeft=4;spacingRight=4;overflow=hidden;rotatable=0;points=[[0,0.5],[1,0.5]];portConstraint=eastwest;whiteSpace=wrap;html=1;" vertex="1" parent="TzwoGXROkYAPexnYqHCg-4">
          <mxGeometry y="92" width="390" height="32" as="geometry" />
        </mxCell>
        <mxCell id="TzwoGXROkYAPexnYqHCg-9" value="+ findAll(req: Request, res: Response): Promise&amp;lt;any&amp;gt;" style="text;strokeColor=none;fillColor=none;align=left;verticalAlign=top;spacingLeft=4;spacingRight=4;overflow=hidden;rotatable=0;points=[[0,0.5],[1,0.5]];portConstraint=eastwest;whiteSpace=wrap;html=1;" vertex="1" parent="TzwoGXROkYAPexnYqHCg-4">
          <mxGeometry y="124" width="390" height="32" as="geometry" />
        </mxCell>
        <mxCell id="TzwoGXROkYAPexnYqHCg-10" value="+ create(req: Request, res: Response): Promise&amp;lt;any&amp;gt;" style="text;strokeColor=none;fillColor=none;align=left;verticalAlign=top;spacingLeft=4;spacingRight=4;overflow=hidden;rotatable=0;points=[[0,0.5],[1,0.5]];portConstraint=eastwest;whiteSpace=wrap;html=1;" vertex="1" parent="TzwoGXROkYAPexnYqHCg-4">
          <mxGeometry y="156" width="390" height="32" as="geometry" />
        </mxCell>
        <mxCell id="TzwoGXROkYAPexnYqHCg-44" value="FinancialSecurityToPayController" style="swimlane;fontStyle=1;align=center;verticalAlign=top;childLayout=stackLayout;horizontal=1;startSize=26;horizontalStack=0;resizeParent=1;resizeParentMax=0;resizeLast=0;collapsible=1;marginBottom=0;whiteSpace=wrap;html=1;" vertex="1" parent="fLMmhs6oxU9pIg5j37gX-111">
          <mxGeometry x="4885" y="113" width="390" height="188" as="geometry" />
        </mxCell>
        <mxCell id="TzwoGXROkYAPexnYqHCg-45" value="&lt;div style=&quot;text-align: center;&quot;&gt;&lt;span style=&quot;background-color: initial;&quot;&gt;+ financialSecurityToPayService: &lt;/span&gt;&lt;span style=&quot;background-color: initial;&quot;&gt;FinancialSecurityToPayService&lt;/span&gt;&lt;/div&gt;" style="text;strokeColor=none;fillColor=none;align=left;verticalAlign=top;spacingLeft=4;spacingRight=4;overflow=hidden;rotatable=0;points=[[0,0.5],[1,0.5]];portConstraint=eastwest;whiteSpace=wrap;html=1;" vertex="1" parent="TzwoGXROkYAPexnYqHCg-44">
          <mxGeometry y="26" width="390" height="26" as="geometry" />
        </mxCell>
        <mxCell id="TzwoGXROkYAPexnYqHCg-46" value="" style="line;strokeWidth=1;fillColor=none;align=left;verticalAlign=middle;spacingTop=-1;spacingLeft=3;spacingRight=3;rotatable=0;labelPosition=right;points=[];portConstraint=eastwest;strokeColor=inherit;" vertex="1" parent="TzwoGXROkYAPexnYqHCg-44">
          <mxGeometry y="52" width="390" height="8" as="geometry" />
        </mxCell>
        <mxCell id="TzwoGXROkYAPexnYqHCg-47" value="&lt;div style=&quot;text-align: center;&quot;&gt;&lt;span style=&quot;background-color: initial;&quot;&gt;+ &lt;/span&gt;&lt;span style=&quot;background-color: initial;&quot;&gt;FinancialSecurityToPayController&lt;/span&gt;&lt;span style=&quot;background-color: initial;&quot;&gt;(service): this&lt;/span&gt;&lt;/div&gt;" style="text;strokeColor=none;fillColor=none;align=left;verticalAlign=top;spacingLeft=4;spacingRight=4;overflow=hidden;rotatable=0;points=[[0,0.5],[1,0.5]];portConstraint=eastwest;whiteSpace=wrap;html=1;" vertex="1" parent="TzwoGXROkYAPexnYqHCg-44">
          <mxGeometry y="60" width="390" height="32" as="geometry" />
        </mxCell>
        <mxCell id="TzwoGXROkYAPexnYqHCg-48" value="+ findById(req: Request, res: Response): Promise&amp;lt;any&amp;gt;" style="text;strokeColor=none;fillColor=none;align=left;verticalAlign=top;spacingLeft=4;spacingRight=4;overflow=hidden;rotatable=0;points=[[0,0.5],[1,0.5]];portConstraint=eastwest;whiteSpace=wrap;html=1;" vertex="1" parent="TzwoGXROkYAPexnYqHCg-44">
          <mxGeometry y="92" width="390" height="32" as="geometry" />
        </mxCell>
        <mxCell id="TzwoGXROkYAPexnYqHCg-49" value="+ findAll(req: Request, res: Response): Promise&amp;lt;any&amp;gt;" style="text;strokeColor=none;fillColor=none;align=left;verticalAlign=top;spacingLeft=4;spacingRight=4;overflow=hidden;rotatable=0;points=[[0,0.5],[1,0.5]];portConstraint=eastwest;whiteSpace=wrap;html=1;" vertex="1" parent="TzwoGXROkYAPexnYqHCg-44">
          <mxGeometry y="124" width="390" height="32" as="geometry" />
        </mxCell>
        <mxCell id="TzwoGXROkYAPexnYqHCg-50" value="+ findByInvoice(req: Request, res: Response): Promise&amp;lt;any&amp;gt;" style="text;strokeColor=none;fillColor=none;align=left;verticalAlign=top;spacingLeft=4;spacingRight=4;overflow=hidden;rotatable=0;points=[[0,0.5],[1,0.5]];portConstraint=eastwest;whiteSpace=wrap;html=1;" vertex="1" parent="TzwoGXROkYAPexnYqHCg-44">
          <mxGeometry y="156" width="390" height="32" as="geometry" />
        </mxCell>
        <mxCell id="fLMmhs6oxU9pIg5j37gX-121" style="edgeStyle=orthogonalEdgeStyle;rounded=0;orthogonalLoop=1;jettySize=auto;html=1;endArrow=none;endFill=0;dashed=1;" parent="1" source="fLMmhs6oxU9pIg5j37gX-90" target="fLMmhs6oxU9pIg5j37gX-112" edge="1">
          <mxGeometry relative="1" as="geometry" />
        </mxCell>
        <mxCell id="fLMmhs6oxU9pIg5j37gX-140" style="edgeStyle=orthogonalEdgeStyle;rounded=0;orthogonalLoop=1;jettySize=auto;html=1;endArrow=none;endFill=0;dashed=1;" parent="1" source="fLMmhs6oxU9pIg5j37gX-122" target="fLMmhs6oxU9pIg5j37gX-127" edge="1">
          <mxGeometry relative="1" as="geometry" />
        </mxCell>
        <mxCell id="fLMmhs6oxU9pIg5j37gX-156" style="edgeStyle=orthogonalEdgeStyle;rounded=0;orthogonalLoop=1;jettySize=auto;html=1;entryX=0.5;entryY=0;entryDx=0;entryDy=0;endArrow=none;endFill=0;dashed=1;" parent="1" source="fLMmhs6oxU9pIg5j37gX-127" target="fLMmhs6oxU9pIg5j37gX-147" edge="1">
          <mxGeometry relative="1" as="geometry" />
        </mxCell>
        <mxCell id="fLMmhs6oxU9pIg5j37gX-173" style="edgeStyle=orthogonalEdgeStyle;rounded=0;orthogonalLoop=1;jettySize=auto;html=1;dashed=1;endArrow=none;endFill=0;" parent="1" source="fLMmhs6oxU9pIg5j37gX-157" target="fLMmhs6oxU9pIg5j37gX-162" edge="1">
          <mxGeometry relative="1" as="geometry" />
        </mxCell>
        <mxCell id="fLMmhs6oxU9pIg5j37gX-194" style="edgeStyle=orthogonalEdgeStyle;rounded=0;orthogonalLoop=1;jettySize=auto;html=1;endArrow=none;endFill=0;dashed=1;" parent="1" source="fLMmhs6oxU9pIg5j37gX-162" target="fLMmhs6oxU9pIg5j37gX-185" edge="1">
          <mxGeometry relative="1" as="geometry" />
        </mxCell>
        <mxCell id="YwlA8bpm41kjBRWY-kJj-4" style="edgeStyle=orthogonalEdgeStyle;rounded=0;orthogonalLoop=1;jettySize=auto;html=1;endArrow=none;endFill=0;dashed=1;" parent="1" source="fLMmhs6oxU9pIg5j37gX-195" target="fLMmhs6oxU9pIg5j37gX-203" edge="1">
          <mxGeometry relative="1" as="geometry" />
        </mxCell>
        <mxCell id="YwlA8bpm41kjBRWY-kJj-18" style="edgeStyle=orthogonalEdgeStyle;rounded=0;orthogonalLoop=1;jettySize=auto;html=1;dashed=1;endArrow=none;endFill=0;" parent="1" source="fLMmhs6oxU9pIg5j37gX-203" target="YwlA8bpm41kjBRWY-kJj-5" edge="1">
          <mxGeometry relative="1" as="geometry" />
        </mxCell>
        <mxCell id="VpDtDvV46lMGRpjxMcqZ-89" style="edgeStyle=orthogonalEdgeStyle;rounded=0;orthogonalLoop=1;jettySize=auto;html=1;entryX=0.5;entryY=0;entryDx=0;entryDy=0;dashed=1;endArrow=none;endFill=0;" parent="1" source="VpDtDvV46lMGRpjxMcqZ-70" target="VpDtDvV46lMGRpjxMcqZ-78" edge="1">
          <mxGeometry relative="1" as="geometry" />
        </mxCell>
        <mxCell id="VpDtDvV46lMGRpjxMcqZ-99" style="edgeStyle=orthogonalEdgeStyle;rounded=0;orthogonalLoop=1;jettySize=auto;html=1;endArrow=none;endFill=0;dashed=1;" parent="1" source="VpDtDvV46lMGRpjxMcqZ-78" target="VpDtDvV46lMGRpjxMcqZ-90" edge="1">
          <mxGeometry relative="1" as="geometry" />
        </mxCell>
        <mxCell id="TzwoGXROkYAPexnYqHCg-3" style="edgeStyle=orthogonalEdgeStyle;rounded=0;orthogonalLoop=1;jettySize=auto;html=1;" edge="1" parent="1" source="VpDtDvV46lMGRpjxMcqZ-127" target="VpDtDvV46lMGRpjxMcqZ-144">
          <mxGeometry relative="1" as="geometry" />
        </mxCell>
        <mxCell id="TzwoGXROkYAPexnYqHCg-13" style="edgeStyle=orthogonalEdgeStyle;rounded=0;orthogonalLoop=1;jettySize=auto;html=1;entryX=0.5;entryY=0;entryDx=0;entryDy=0;" edge="1" parent="1" source="VpDtDvV46lMGRpjxMcqZ-144" target="TzwoGXROkYAPexnYqHCg-4">
          <mxGeometry relative="1" as="geometry" />
        </mxCell>
        <mxCell id="TzwoGXROkYAPexnYqHCg-16" style="edgeStyle=orthogonalEdgeStyle;rounded=0;orthogonalLoop=1;jettySize=auto;html=1;" edge="1" parent="1" source="VpDtDvV46lMGRpjxMcqZ-100" target="VpDtDvV46lMGRpjxMcqZ-120">
          <mxGeometry relative="1" as="geometry" />
        </mxCell>
        <mxCell id="VpDtDvV46lMGRpjxMcqZ-44" style="edgeStyle=orthogonalEdgeStyle;rounded=0;orthogonalLoop=1;jettySize=auto;html=1;" parent="1" source="VpDtDvV46lMGRpjxMcqZ-10" target="VpDtDvV46lMGRpjxMcqZ-23" edge="1">
          <mxGeometry relative="1" as="geometry" />
        </mxCell>
        <mxCell id="TzwoGXROkYAPexnYqHCg-28" style="edgeStyle=orthogonalEdgeStyle;rounded=0;orthogonalLoop=1;jettySize=auto;html=1;" edge="1" parent="1" source="VpDtDvV46lMGRpjxMcqZ-120" target="TzwoGXROkYAPexnYqHCg-19">
          <mxGeometry relative="1" as="geometry" />
        </mxCell>
        <mxCell id="TzwoGXROkYAPexnYqHCg-43" style="edgeStyle=orthogonalEdgeStyle;rounded=0;orthogonalLoop=1;jettySize=auto;html=1;" edge="1" parent="1" source="TzwoGXROkYAPexnYqHCg-29" target="TzwoGXROkYAPexnYqHCg-37">
          <mxGeometry relative="1" as="geometry" />
        </mxCell>
        <mxCell id="TzwoGXROkYAPexnYqHCg-53" style="edgeStyle=orthogonalEdgeStyle;rounded=0;orthogonalLoop=1;jettySize=auto;html=1;" edge="1" parent="1" source="TzwoGXROkYAPexnYqHCg-37" target="TzwoGXROkYAPexnYqHCg-44">
          <mxGeometry relative="1" as="geometry">
            <mxPoint x="5180" y="1632.000020345052" as="targetPoint" />
          </mxGeometry>
        </mxCell>
        <mxCell id="TzwoGXROkYAPexnYqHCg-61" value="&lt;p style=&quot;margin:0px;margin-top:4px;text-align:center;&quot;&gt;&lt;i&gt;&amp;lt;&amp;lt;Interface&amp;gt;&amp;gt;&lt;/i&gt;&lt;br&gt;&lt;b&gt;InvoiceGenerator&lt;/b&gt;&lt;/p&gt;&lt;hr size=&quot;1&quot; style=&quot;border-style:solid;&quot;&gt;&lt;p style=&quot;margin:0px;margin-left:4px;&quot;&gt;+ generate(): String&lt;/p&gt;" style="verticalAlign=top;align=left;overflow=fill;html=1;whiteSpace=wrap;" vertex="1" parent="1">
          <mxGeometry x="3760" y="450" width="190" height="80" as="geometry" />
        </mxCell>
        <mxCell id="TzwoGXROkYAPexnYqHCg-71" style="edgeStyle=orthogonalEdgeStyle;rounded=0;orthogonalLoop=1;jettySize=auto;html=1;entryX=1;entryY=0.5;entryDx=0;entryDy=0;" edge="1" parent="1" source="TzwoGXROkYAPexnYqHCg-66" target="TzwoGXROkYAPexnYqHCg-61">
          <mxGeometry relative="1" as="geometry" />
        </mxCell>
        <mxCell id="TzwoGXROkYAPexnYqHCg-72" value="Implements" style="edgeLabel;html=1;align=center;verticalAlign=middle;resizable=0;points=[];" vertex="1" connectable="0" parent="TzwoGXROkYAPexnYqHCg-71">
          <mxGeometry x="0.0833" y="-1" relative="1" as="geometry">
            <mxPoint x="6" y="1" as="offset" />
          </mxGeometry>
        </mxCell>
        <mxCell id="TzwoGXROkYAPexnYqHCg-66" value="UUIDInvoiceGenerator" style="swimlane;fontStyle=0;childLayout=stackLayout;horizontal=1;startSize=26;fillColor=none;horizontalStack=0;resizeParent=1;resizeParentMax=0;resizeLast=0;collapsible=1;marginBottom=0;whiteSpace=wrap;html=1;" vertex="1" parent="1">
          <mxGeometry x="4090" y="464" width="165" height="52" as="geometry" />
        </mxCell>
        <mxCell id="TzwoGXROkYAPexnYqHCg-67" value="+ generate(): String" style="text;strokeColor=none;fillColor=none;align=left;verticalAlign=top;spacingLeft=4;spacingRight=4;overflow=hidden;rotatable=0;points=[[0,0.5],[1,0.5]];portConstraint=eastwest;whiteSpace=wrap;html=1;" vertex="1" parent="TzwoGXROkYAPexnYqHCg-66">
          <mxGeometry y="26" width="165" height="26" as="geometry" />
        </mxCell>
        <mxCell id="TzwoGXROkYAPexnYqHCg-91" value="Finance" style="swimlane;whiteSpace=wrap;html=1;" vertex="1" parent="1">
          <mxGeometry x="3740" y="380" width="540" height="200" as="geometry" />
        </mxCell>
        <mxCell id="TzwoGXROkYAPexnYqHCg-128" style="edgeStyle=orthogonalEdgeStyle;rounded=0;orthogonalLoop=1;jettySize=auto;html=1;entryX=0.5;entryY=0;entryDx=0;entryDy=0;" edge="1" parent="1" source="TzwoGXROkYAPexnYqHCg-99" target="TzwoGXROkYAPexnYqHCg-115">
          <mxGeometry relative="1" as="geometry" />
        </mxCell>
      </root>
    </mxGraphModel>
  </diagram>
</mxfile>
